<svg width="21" height="21" viewBox="0 0 21 21" fill="none" xmlns="http://www.w3.org/2000/svg">
<path d="M7.36827 0.5H1.6262C0.786544 0.5 0.103516 1.18303 0.103516 2.02269V7.76476C0.103516 8.60442 0.786544 9.28745 1.6262 9.28745H7.36827C8.20793 9.28745 8.89096 8.60442 8.89096 7.76476V2.02269C8.89083 1.18303 8.20793 0.5 7.36827 0.5Z" fill="white"/>
<path d="M18.5807 0.5H12.8386C11.999 0.5 11.3159 1.18303 11.3159 2.02269V7.76476C11.3159 8.60442 11.999 9.28745 12.8386 9.28745H18.5807C19.4204 9.28745 20.1034 8.60442 20.1034 7.76476V2.02269C20.1034 1.18303 19.4204 0.5 18.5807 0.5Z" fill="white"/>
<path d="M7.36827 11.7126H1.6262C0.786544 11.7126 0.103516 12.3955 0.103516 13.2352V18.9772C0.103516 19.8169 0.786544 20.4999 1.6262 20.4999H7.36827C8.20793 20.4999 8.89096 19.8169 8.89096 18.9772V13.2352C8.89083 12.3955 8.20793 11.7126 7.36827 11.7126Z" fill="white"/>
<path d="M18.5807 11.7126H12.8386C11.999 11.7126 11.3159 12.3956 11.3159 13.2352V18.9773C11.3159 19.817 11.999 20.5 12.8386 20.5H18.5807C19.4204 20.4999 20.1034 19.8169 20.1034 18.9772V13.2352C20.1034 12.3955 19.4204 11.7126 18.5807 11.7126Z" fill="white"/>
</svg>
