<svg width="18" height="18" viewBox="0 0 18 18" fill="none" xmlns="http://www.w3.org/2000/svg">
<g clip-path="url(#clip0_36_251)">
<path d="M14.625 0H3.375C2.97717 0 2.59564 0.158035 2.31434 0.43934C2.03304 0.720644 1.875 1.10218 1.875 1.5V16.5C1.875 16.8978 2.03304 17.2794 2.31434 17.5607C2.59564 17.842 2.97717 18 3.375 18H14.625C15.0228 18 15.4044 17.842 15.6857 17.5607C15.967 17.2794 16.125 16.8978 16.125 16.5V1.5C16.125 1.10218 15.967 0.720644 15.6857 0.43934C15.4044 0.158035 15.0228 0 14.625 0V0ZM15.375 16.5C15.375 16.6989 15.296 16.8897 15.1553 17.0303C15.0147 17.171 14.8239 17.25 14.625 17.25H3.375C3.17609 17.25 2.98532 17.171 2.84467 17.0303C2.70402 16.8897 2.625 16.6989 2.625 16.5V1.5C2.625 1.30109 2.70402 1.11032 2.84467 0.96967C2.98532 0.829018 3.17609 0.75 3.375 0.75H14.625C14.8239 0.75 15.0147 0.829018 15.1553 0.96967C15.296 1.11032 15.375 1.30109 15.375 1.5V16.5Z" fill="#FF3F3F"/>
<path d="M14.25 1.875H3.75C3.65054 1.875 3.55516 1.91451 3.48484 1.98484C3.41451 2.05516 3.375 2.15054 3.375 2.25V6.375C3.375 6.47446 3.41451 6.56984 3.48484 6.64017C3.55516 6.71049 3.65054 6.75 3.75 6.75H14.25C14.3495 6.75 14.4448 6.71049 14.5152 6.64017C14.5855 6.56984 14.625 6.47446 14.625 6.375V2.25C14.625 2.15054 14.5855 2.05516 14.5152 1.98484C14.4448 1.91451 14.3495 1.875 14.25 1.875ZM13.875 6H4.125V2.625H13.875V6Z" fill="#FF3F3F"/>
<path d="M11.25 7.875H9.75C9.65054 7.875 9.55516 7.91451 9.48483 7.98483C9.41451 8.05516 9.375 8.15054 9.375 8.25V9.75C9.375 9.84946 9.41451 9.94484 9.48483 10.0152C9.55516 10.0855 9.65054 10.125 9.75 10.125H11.25C11.3495 10.125 11.4448 10.0855 11.5152 10.0152C11.5855 9.94484 11.625 9.84946 11.625 9.75V8.25C11.625 8.15054 11.5855 8.05516 11.5152 7.98483C11.4448 7.91451 11.3495 7.875 11.25 7.875ZM10.875 9.375H10.125V8.625H10.875V9.375Z" fill="#FF3F3F"/>
<path d="M14.25 7.875H12.75C12.6505 7.875 12.5552 7.91451 12.4848 7.98483C12.4145 8.05516 12.375 8.15054 12.375 8.25V9.75C12.375 9.84946 12.4145 9.94484 12.4848 10.0152C12.5552 10.0855 12.6505 10.125 12.75 10.125H14.25C14.3495 10.125 14.4448 10.0855 14.5152 10.0152C14.5855 9.94484 14.625 9.84946 14.625 9.75V8.25C14.625 8.15054 14.5855 8.05516 14.5152 7.98483C14.4448 7.91451 14.3495 7.875 14.25 7.875ZM13.875 9.375H13.125V8.625H13.875V9.375Z" fill="#FF3F3F"/>
<path d="M8.25 7.875H6.75C6.65054 7.875 6.55516 7.91451 6.48483 7.98483C6.41451 8.05516 6.375 8.15054 6.375 8.25V9.75C6.375 9.84946 6.41451 9.94484 6.48483 10.0152C6.55516 10.0855 6.65054 10.125 6.75 10.125H8.25C8.34946 10.125 8.44484 10.0855 8.51517 10.0152C8.58549 9.94484 8.625 9.84946 8.625 9.75V8.25C8.625 8.15054 8.58549 8.05516 8.51517 7.98483C8.44484 7.91451 8.34946 7.875 8.25 7.875ZM7.875 9.375H7.125V8.625H7.875V9.375Z" fill="#FF3F3F"/>
<path d="M5.25 7.875H3.75C3.65054 7.875 3.55516 7.91451 3.48484 7.98483C3.41451 8.05516 3.375 8.15054 3.375 8.25V9.75C3.375 9.84946 3.41451 9.94484 3.48484 10.0152C3.55516 10.0855 3.65054 10.125 3.75 10.125H5.25C5.34946 10.125 5.44484 10.0855 5.51516 10.0152C5.58549 9.94484 5.625 9.84946 5.625 9.75V8.25C5.625 8.15054 5.58549 8.05516 5.51516 7.98483C5.44484 7.91451 5.34946 7.875 5.25 7.875ZM4.875 9.375H4.125V8.625H4.875V9.375Z" fill="#FF3F3F"/>
<path d="M11.25 10.875H9.75C9.65054 10.875 9.55516 10.9145 9.48483 10.9848C9.41451 11.0552 9.375 11.1505 9.375 11.25V12.75C9.375 12.8495 9.41451 12.9448 9.48483 13.0152C9.55516 13.0855 9.65054 13.125 9.75 13.125H11.25C11.3495 13.125 11.4448 13.0855 11.5152 13.0152C11.5855 12.9448 11.625 12.8495 11.625 12.75V11.25C11.625 11.1505 11.5855 11.0552 11.5152 10.9848C11.4448 10.9145 11.3495 10.875 11.25 10.875ZM10.875 12.375H10.125V11.625H10.875V12.375Z" fill="#FF3F3F"/>
<path d="M8.25 10.875H6.75C6.65054 10.875 6.55516 10.9145 6.48483 10.9848C6.41451 11.0552 6.375 11.1505 6.375 11.25V12.75C6.375 12.8495 6.41451 12.9448 6.48483 13.0152C6.55516 13.0855 6.65054 13.125 6.75 13.125H8.25C8.34946 13.125 8.44484 13.0855 8.51517 13.0152C8.58549 12.9448 8.625 12.8495 8.625 12.75V11.25C8.625 11.1505 8.58549 11.0552 8.51517 10.9848C8.44484 10.9145 8.34946 10.875 8.25 10.875ZM7.875 12.375H7.125V11.625H7.875V12.375Z" fill="#FF3F3F"/>
<path d="M5.25 10.875H3.75C3.65054 10.875 3.55516 10.9145 3.48484 10.9848C3.41451 11.0552 3.375 11.1505 3.375 11.25V12.75C3.375 12.8495 3.41451 12.9448 3.48484 13.0152C3.55516 13.0855 3.65054 13.125 3.75 13.125H5.25C5.34946 13.125 5.44484 13.0855 5.51516 13.0152C5.58549 12.9448 5.625 12.8495 5.625 12.75V11.25C5.625 11.1505 5.58549 11.0552 5.51516 10.9848C5.44484 10.9145 5.34946 10.875 5.25 10.875ZM4.875 12.375H4.125V11.625H4.875V12.375Z" fill="#FF3F3F"/>
<path d="M11.25 13.875H9.75C9.65054 13.875 9.55516 13.9145 9.48483 13.9848C9.41451 14.0552 9.375 14.1505 9.375 14.25V15.75C9.375 15.8495 9.41451 15.9448 9.48483 16.0152C9.55516 16.0855 9.65054 16.125 9.75 16.125H11.25C11.3495 16.125 11.4448 16.0855 11.5152 16.0152C11.5855 15.9448 11.625 15.8495 11.625 15.75V14.25C11.625 14.1505 11.5855 14.0552 11.5152 13.9848C11.4448 13.9145 11.3495 13.875 11.25 13.875ZM10.875 15.375H10.125V14.625H10.875V15.375Z" fill="#FF3F3F"/>
<path d="M14.25 10.875H12.75C12.6505 10.875 12.5552 10.9145 12.4848 10.9848C12.4145 11.0552 12.375 11.1505 12.375 11.25V15.75C12.375 15.8495 12.4145 15.9448 12.4848 16.0152C12.5552 16.0855 12.6505 16.125 12.75 16.125H14.25C14.3495 16.125 14.4448 16.0855 14.5152 16.0152C14.5855 15.9448 14.625 15.8495 14.625 15.75V11.25C14.625 11.1505 14.5855 11.0552 14.5152 10.9848C14.4448 10.9145 14.3495 10.875 14.25 10.875ZM13.875 15.375H13.125V11.625H13.875V15.375Z" fill="#FF3F3F"/>
<path d="M8.25 13.875H6.75C6.65054 13.875 6.55516 13.9145 6.48483 13.9848C6.41451 14.0552 6.375 14.1505 6.375 14.25V15.75C6.375 15.8495 6.41451 15.9448 6.48483 16.0152C6.55516 16.0855 6.65054 16.125 6.75 16.125H8.25C8.34946 16.125 8.44484 16.0855 8.51517 16.0152C8.58549 15.9448 8.625 15.8495 8.625 15.75V14.25C8.625 14.1505 8.58549 14.0552 8.51517 13.9848C8.44484 13.9145 8.34946 13.875 8.25 13.875ZM7.875 15.375H7.125V14.625H7.875V15.375Z" fill="#FF3F3F"/>
<path d="M5.25 13.875H3.75C3.65054 13.875 3.55516 13.9145 3.48484 13.9848C3.41451 14.0552 3.375 14.1505 3.375 14.25V15.75C3.375 15.8495 3.41451 15.9448 3.48484 16.0152C3.55516 16.0855 3.65054 16.125 3.75 16.125H5.25C5.34946 16.125 5.44484 16.0855 5.51516 16.0152C5.58549 15.9448 5.625 15.8495 5.625 15.75V14.25C5.625 14.1505 5.58549 14.0552 5.51516 13.9848C5.44484 13.9145 5.34946 13.875 5.25 13.875ZM4.875 15.375H4.125V14.625H4.875V15.375Z" fill="#FF3F3F"/>
</g>
<defs>
<clipPath id="clip0_36_251">
<rect width="18" height="18" fill="white"/>
</clipPath>
</defs>
</svg>
