<?xml version="1.0" encoding="UTF-8" ?>
<!DOCTYPE svg PUBLIC "-//W3C//DTD SVG 1.1//EN" "http://www.w3.org/Graphics/SVG/1.1/DTD/svg11.dtd">
<svg width="172pt" height="50pt" viewBox="0 0 172 50" version="1.1" xmlns="http://www.w3.org/2000/svg">
<g id="#e84141ff">
<path fill="#e84141" opacity="1.00" d=" M 139.07 1.15 C 142.14 1.43 145.23 1.45 148.29 1.04 C 148.31 1.85 148.33 3.46 148.34 4.27 C 145.46 5.38 142.42 5.40 139.47 4.51 C 139.33 3.39 139.20 2.27 139.07 1.15 Z" />
<path fill="#e84141" opacity="1.00" d=" M 15.52 3.54 C 19.09 1.07 23.76 1.51 27.82 2.11 C 32.96 4.57 38.19 7.70 41.32 12.64 C 43.57 16.11 44.31 20.25 45.98 23.99 C 46.80 25.69 46.87 27.60 47.09 29.45 C 31.41 30.15 15.69 29.63 0.00 29.72 L 0.00 24.95 C 1.99 20.30 2.69 14.97 6.05 11.01 C 8.54 7.76 12.03 5.55 15.52 3.54 M 17.41 3.47 C 17.39 7.96 17.51 12.44 17.43 16.93 C 17.46 18.37 17.00 19.65 16.05 20.77 C 15.47 15.65 15.86 10.48 15.76 5.34 C 8.53 8.42 3.30 15.48 2.93 23.39 C 16.44 23.51 29.96 23.52 43.48 23.39 C 42.78 20.09 42.10 16.71 40.34 13.79 C 38.08 9.93 34.30 7.31 30.45 5.21 C 29.75 10.35 31.79 16.14 29.04 20.79 C 28.37 15.03 28.86 9.23 28.71 3.45 C 27.08 3.42 25.44 3.40 23.81 3.37 C 23.75 9.49 23.84 15.61 23.78 21.73 C 23.42 21.72 22.70 21.70 22.34 21.69 C 22.33 15.58 22.44 9.46 22.31 3.35 C 20.68 3.39 19.05 3.43 17.41 3.47 M 0.91 25.13 C 0.89 25.95 0.84 27.58 0.82 28.40 C 15.72 28.44 30.63 28.44 45.53 28.40 C 45.52 27.58 45.49 25.93 45.48 25.10 C 30.62 25.15 15.77 25.09 0.91 25.13 Z" />
<path fill="#e84141" opacity="1.00" d=" M 58.82 10.74 C 61.20 5.68 67.54 5.40 72.29 6.55 C 72.39 8.33 72.46 10.10 72.53 11.88 C 69.93 11.85 66.69 10.75 64.79 13.18 C 64.49 14.61 64.47 16.21 65.60 17.31 C 67.79 18.33 70.24 17.68 72.54 17.59 C 72.19 19.45 73.27 22.03 71.30 23.22 C 67.73 23.95 63.54 23.89 60.68 21.34 C 57.48 18.89 57.80 14.19 58.82 10.74 Z" />
<path fill="#e84141" opacity="1.00" d=" M 75.77 6.47 C 80.78 6.46 85.78 6.50 90.79 6.43 C 90.80 8.20 90.81 9.97 90.85 11.73 C 89.45 11.77 88.06 11.82 86.67 11.86 C 86.63 15.64 86.64 19.42 86.65 23.21 C 84.51 23.24 82.37 23.25 80.23 23.25 C 80.24 19.46 80.23 15.66 80.23 11.86 C 78.72 11.81 77.21 11.75 75.70 11.69 C 75.72 9.95 75.74 8.21 75.77 6.47 Z" />
<path fill="#e84141" opacity="1.00" d=" M 94.76 6.47 C 98.60 6.62 102.53 6.04 106.32 6.87 C 110.97 8.32 111.81 15.24 108.16 18.17 C 106.21 19.44 103.80 19.48 101.58 19.90 C 101.34 20.64 100.85 22.11 100.60 22.85 C 98.74 23.53 96.70 23.17 94.76 23.29 C 94.70 17.68 94.70 12.07 94.76 6.47 M 101.41 12.18 C 100.28 13.61 102.67 15.45 103.68 13.85 C 104.84 12.43 102.41 10.59 101.41 12.18 Z" />
<path fill="#e84141" opacity="1.00" d=" M 118.43 6.59 C 121.87 5.46 126.00 5.74 128.89 8.09 C 132.93 11.65 132.71 19.13 128.04 22.08 C 123.59 24.88 116.45 24.06 114.02 18.95 C 112.21 14.58 113.56 8.30 118.43 6.59 M 121.26 12.12 C 118.75 13.05 120.17 15.97 120.55 17.82 C 122.09 17.45 124.99 18.26 124.73 15.80 C 125.61 13.59 123.69 10.71 121.26 12.12 Z" />
<path fill="#e84141" opacity="1.00" d=" M 146.44 6.49 C 148.16 6.47 149.89 6.46 151.62 6.43 C 151.65 12.03 151.61 17.63 151.65 23.22 C 149.57 23.23 147.49 23.24 145.41 23.23 C 145.37 21.33 145.33 19.43 145.24 17.53 C 143.45 19.35 141.79 21.29 140.16 23.25 C 138.56 23.25 136.97 23.25 135.38 23.25 C 135.34 17.66 135.37 12.06 135.35 6.46 C 137.42 6.46 139.49 6.47 141.56 6.49 C 141.54 8.64 141.52 10.79 141.50 12.94 C 143.18 10.82 144.82 8.67 146.44 6.49 Z" />
<path fill="#e84141" opacity="1.00" d=" M 58.58 28.26 C 63.12 28.52 67.81 27.66 72.25 28.86 C 74.50 30.69 73.27 33.45 72.81 35.78 C 73.70 38.15 75.46 40.99 73.21 43.19 C 68.95 46.13 63.38 44.43 58.56 44.86 C 58.55 39.33 58.52 33.80 58.58 28.26 M 64.98 32.53 C 63.04 34.31 67.14 36.04 67.78 33.87 C 68.19 32.32 65.98 31.67 64.98 32.53 M 65.18 38.37 C 63.98 39.85 66.58 41.44 67.55 39.96 C 68.74 38.47 66.16 36.89 65.18 38.37 Z" />
<path fill="#e84141" opacity="1.00" d=" M 81.48 28.54 C 84.95 26.94 89.37 27.22 92.49 29.49 C 96.47 32.73 96.46 39.36 92.87 42.89 C 88.53 46.97 80.24 45.99 77.68 40.35 C 76.50 36.20 76.90 30.43 81.48 28.54 M 87.01 39.50 C 89.37 38.55 88.42 35.72 88.68 33.77 C 87.44 33.62 86.20 33.52 84.96 33.49 C 82.18 35.17 83.50 40.25 87.01 39.50 Z" />
<path fill="#e84141" opacity="1.00" d=" M 104.47 28.39 C 107.37 27.03 110.64 27.69 113.64 28.29 C 113.70 30.04 113.75 31.79 113.81 33.54 C 111.50 33.44 109.09 32.98 106.86 33.82 C 106.02 35.69 105.63 38.47 107.99 39.38 C 109.93 39.66 111.89 39.40 113.84 39.30 C 113.76 41.10 113.69 42.89 113.63 44.68 C 110.40 45.35 106.85 45.88 103.85 44.14 C 97.58 41.37 97.95 30.63 104.47 28.39 Z" />
<path fill="#e84141" opacity="1.00" d=" M 117.23 28.23 C 122.27 28.29 127.30 28.28 132.34 28.25 C 132.35 29.96 132.36 31.68 132.37 33.39 C 130.96 33.42 129.55 33.45 128.15 33.46 C 128.20 37.24 128.18 41.01 128.17 44.79 C 125.96 44.84 123.76 44.87 121.57 44.90 C 121.54 41.10 121.53 37.30 121.56 33.50 C 120.12 33.46 118.68 33.42 117.24 33.38 C 117.24 31.66 117.24 29.95 117.23 28.23 Z" />
<path fill="#e84141" opacity="1.00" d=" M 139.42 28.46 C 143.12 26.87 147.89 27.28 150.93 30.08 C 153.67 33.19 153.96 38.15 151.64 41.59 C 148.03 47.06 138.21 46.58 135.56 40.43 C 133.47 36.35 134.93 30.25 139.42 28.46 M 141.69 33.54 C 141.57 35.56 140.68 38.29 143.00 39.45 C 145.72 40.16 147.01 37.18 146.56 34.93 C 145.55 33.04 143.44 33.58 141.69 33.54 Z" />
<path fill="#e84141" opacity="1.00" d=" M 156.91 28.27 C 158.98 28.28 161.06 28.29 163.14 28.30 C 163.27 30.27 163.40 32.24 163.58 34.21 C 164.77 32.25 165.89 30.25 167.03 28.26 C 168.68 28.26 170.34 28.25 172.00 28.25 L 172.00 31.35 C 171.19 32.98 170.22 34.53 169.57 36.24 C 170.14 38.10 171.20 39.77 172.00 41.55 L 172.00 44.88 C 170.37 44.88 168.74 44.87 167.12 44.87 C 165.94 42.82 164.78 40.76 163.54 38.74 C 163.39 40.77 163.29 42.81 163.20 44.85 C 161.08 44.85 158.96 44.84 156.84 44.83 C 156.81 39.31 156.77 33.79 156.91 28.27 Z" />
<path fill="#e84141" opacity="1.00" d=" M 0.00 38.74 C 2.59 37.17 4.64 34.04 7.98 34.23 C 17.67 34.18 27.37 34.25 37.07 34.20 C 40.87 33.95 43.90 36.67 47.10 38.29 C 47.33 40.35 47.27 42.42 47.26 44.49 C 44.01 45.22 41.74 47.61 39.61 50.00 L 29.85 50.00 C 27.41 48.52 25.18 46.71 23.06 44.81 C 21.00 46.71 18.83 48.50 16.46 50.00 L 7.04 50.00 C 4.76 48.26 2.51 46.47 0.00 45.08 L 0.00 38.74 M 4.90 35.81 C 5.11 39.80 2.83 45.72 7.15 48.13 C 9.75 48.52 12.40 48.45 15.01 48.21 C 18.14 47.78 20.01 44.98 22.39 43.23 C 24.46 42.65 25.50 45.05 26.98 46.04 C 30.12 49.13 34.93 48.46 38.92 48.15 C 42.84 46.55 41.42 41.54 41.55 38.24 C 41.92 35.68 38.91 35.37 37.05 35.53 C 26.34 35.73 15.60 35.14 4.90 35.81 M 43.26 41.25 C 43.27 41.86 43.29 43.08 43.30 43.69 C 43.87 43.67 45.02 43.63 45.59 43.61 C 45.60 43.05 45.61 41.92 45.62 41.36 C 45.03 41.33 43.85 41.27 43.26 41.25 M 1.14 42.43 C 0.63 44.09 1.17 44.66 2.77 44.14 C 3.29 42.48 2.75 41.91 1.14 42.43 Z" />
<path fill="#e84141" opacity="1.00" d=" M 6.47 37.52 C 10.88 37.05 15.31 37.22 19.73 37.24 C 19.74 37.62 19.74 38.36 19.74 38.74 C 15.80 38.77 11.86 38.76 7.92 38.78 C 7.69 40.59 7.46 42.40 6.99 44.17 C 6.24 42.02 6.37 39.75 6.47 37.52 Z" />
<path fill="#e84141" opacity="1.00" d=" M 21.46 37.30 C 22.49 37.28 23.53 37.26 24.57 37.24 C 24.57 37.62 24.58 38.37 24.59 38.74 C 23.54 38.72 22.49 38.70 21.44 38.68 C 21.44 38.33 21.45 37.65 21.46 37.30 Z" />
</g>
</svg>
