<svg width="26" height="20" viewBox="0 0 26 20" fill="none" xmlns="http://www.w3.org/2000/svg">
<path fill-rule="evenodd" clip-rule="evenodd" d="M1.14814 2.22222H24.8519C25.4652 2.22222 25.963 1.72444 25.963 1.11111C25.963 0.497778 25.4652 0 24.8519 0H1.14814C0.534811 0 0.0370331 0.497778 0.0370331 1.11111C0.0370331 1.72444 0.534811 2.22222 1.14814 2.22222Z" fill="#FF3F3F"/>
<path fill-rule="evenodd" clip-rule="evenodd" d="M1.14814 11.1109H24.8519C25.4652 11.1109 25.963 10.6131 25.963 9.99978C25.963 9.38645 25.4652 8.88867 24.8519 8.88867H1.14814C0.534811 8.88867 0.0370331 9.38645 0.0370331 9.99978C0.0370331 10.6131 0.534811 11.1109 1.14814 11.1109Z" fill="#FF3F3F"/>
<path fill-rule="evenodd" clip-rule="evenodd" d="M1.14814 20.0001H24.8519C25.4652 20.0001 25.963 19.5023 25.963 18.8889C25.963 18.2756 25.4652 17.7778 24.8519 17.7778H1.14814C0.534811 17.7778 0.0370331 18.2756 0.0370331 18.8889C0.0370331 19.5023 0.534811 20.0001 1.14814 20.0001Z" fill="#FF3F3F"/>
</svg>
