<svg width="20" height="20" viewBox="0 0 20 20" fill="none" xmlns="http://www.w3.org/2000/svg">
<path d="M18.385 13.9187C18.3364 13.8802 14.8018 11.3324 13.8316 11.5153C13.3684 11.5972 13.1036 11.9131 12.5722 12.5454C12.4867 12.6475 12.2813 12.8922 12.1216 13.0661C11.7857 12.9566 11.4582 12.8233 11.1413 12.6671C9.50582 11.8709 8.18441 10.5495 7.3882 8.91403C7.23196 8.59722 7.09862 8.26962 6.9892 7.93375C7.16376 7.77344 7.40838 7.568 7.51288 7.48012C8.14226 6.95169 8.45873 6.68687 8.54066 6.22256C8.7087 5.26069 6.16269 1.70175 6.13598 1.66969C6.02046 1.50467 5.86971 1.36739 5.69463 1.26778C5.51954 1.16817 5.32451 1.10873 5.12363 1.09375C4.0917 1.09375 1.14551 4.91572 1.14551 5.55934C1.14551 5.59675 1.19954 9.39913 5.88838 14.1687C10.6532 18.8522 14.455 18.9062 14.4924 18.9062C15.1366 18.9062 18.958 15.9601 18.958 14.9281C18.9432 14.728 18.8841 14.5336 18.785 14.359C18.6859 14.1845 18.5493 14.0341 18.385 13.9187Z" fill="#FF3F3F"/>
</svg>
