<svg width="31" height="30" viewBox="0 0 31 30" fill="none" xmlns="http://www.w3.org/2000/svg">
<path d="M15.5518 30C23.836 30 30.5518 23.2843 30.5518 15C30.5518 6.71573 23.836 0 15.5518 0C7.26749 0 0.551758 6.71573 0.551758 15C0.551758 23.2843 7.26749 30 15.5518 30Z" fill="#1C8ADB"/>
<path d="M23.7232 7.75568L23.413 7.86818L6.5755 13.9347C6.45618 13.9716 6.35248 14.047 6.28064 14.1492C6.20881 14.2513 6.1729 14.3745 6.17856 14.4992C6.18421 14.624 6.2311 14.7433 6.31188 14.8386C6.39266 14.9339 6.50277 14.9996 6.62494 15.0256L10.9835 16.2187L11.7965 18.6051L12.6096 20.9915C12.6563 21.1085 12.7309 21.2123 12.8268 21.2939C12.9227 21.3755 13.0371 21.4325 13.1601 21.4599C13.283 21.4873 13.4108 21.4842 13.5323 21.451C13.6538 21.4178 13.7654 21.3554 13.8573 21.2693L16.109 19.142L20.5306 22.1403C21.071 22.5085 21.8414 22.2358 21.9795 21.629L24.9079 8.68977C25.0511 8.04887 24.3761 7.52216 23.7232 7.75568ZM21.5738 10.6278L13.9664 16.846L13.6085 17.1392C13.5298 17.2015 13.4785 17.292 13.4653 17.3915L13.3852 18.0528L13.1653 19.9108C13.1671 19.9334 13.1598 19.9558 13.1451 19.9731C13.1304 19.9903 13.1095 20.001 13.0869 20.0028C13.0643 20.0046 13.0419 19.9974 13.0246 19.9827C13.0073 19.968 12.9966 19.947 12.9948 19.9244L12.3761 18.0682L11.7369 16.1676C11.7098 16.0822 11.7134 15.99 11.747 15.9069C11.7806 15.8239 11.8421 15.7551 11.921 15.7125L19.8369 11.175L21.3266 10.3227C21.5431 10.1966 21.7647 10.471 21.5738 10.6278Z" fill="white"/>
</svg>
