<svg width="31" height="30" viewBox="0 0 31 30" fill="none" xmlns="http://www.w3.org/2000/svg">
<path d="M15.5518 30C23.836 30 30.5518 23.2843 30.5518 15C30.5518 6.71573 23.836 0 15.5518 0C7.26749 0 0.551758 6.71573 0.551758 15C0.551758 23.2843 7.26749 30 15.5518 30Z" fill="#4169E1"/>
<path d="M24.1972 20.8705C23.7609 20.9318 21.6268 20.8705 21.516 20.8705C20.9643 20.8775 20.4321 20.6668 20.0347 20.2841C19.5847 19.8511 19.1824 19.3739 18.7427 18.9205C18.6126 18.7828 18.4718 18.6557 18.3216 18.5403C17.9705 18.2693 17.6228 18.3307 17.4574 18.7449C17.3283 19.1925 17.2381 19.6505 17.1881 20.1136C17.1591 20.533 16.8932 20.7955 16.4228 20.8244C16.1313 20.8398 15.8398 20.8449 15.5518 20.8381C14.5019 20.8314 13.4686 20.5761 12.5364 20.0932C11.5278 19.5311 10.649 18.7627 9.95743 17.8381C8.82049 16.3858 7.91197 14.7903 7.10061 13.1455C7.05799 13.0636 6.22617 11.2943 6.20572 11.2108C6.13072 10.9312 6.20572 10.6636 6.43583 10.5716C6.58242 10.5153 9.32334 10.5716 9.36936 10.5716C9.57313 10.5698 9.77217 10.633 9.93765 10.7519C10.1031 10.8708 10.2265 11.0393 10.2898 11.233C10.7965 12.5303 11.4902 13.7466 12.3489 14.8432C12.4691 14.9898 12.6097 15.1184 12.7665 15.225C12.9898 15.3767 13.2012 15.3239 13.2932 15.0665C13.4023 14.7094 13.4664 14.34 13.4841 13.967C13.4995 13.2273 13.4841 12.7398 13.4432 12.0017C13.416 11.5278 13.2489 11.1119 12.55 10.979C12.3353 10.9415 12.3165 10.7642 12.4546 10.5869C12.7427 10.2187 13.1364 10.1608 13.5779 10.1386C14.2358 10.1011 14.8938 10.1267 15.5518 10.1386H15.6949C15.9813 10.1376 16.267 10.1667 16.5472 10.2256C16.7129 10.2591 16.8633 10.3452 16.976 10.4711C17.0887 10.5971 17.1578 10.7561 17.1728 10.9244C17.2064 11.1111 17.2207 11.3007 17.2154 11.4903C17.1983 12.2983 17.1591 13.1045 17.1506 13.9125C17.1428 14.2324 17.1719 14.5521 17.2375 14.8653C17.3313 15.2949 17.6262 15.4023 17.9194 15.092C18.299 14.691 18.6472 14.2613 18.9608 13.8068C19.5155 12.9785 19.973 12.0891 20.3245 11.1562C20.5154 10.6773 20.6654 10.5716 21.1768 10.5716H24.0847C24.2576 10.5686 24.43 10.5915 24.5961 10.6398C24.6549 10.6552 24.7098 10.6826 24.7575 10.7203C24.8052 10.758 24.8446 10.8051 24.8733 10.8587C24.9019 10.9123 24.9192 10.9712 24.924 11.0318C24.9288 11.0924 24.921 11.1533 24.9012 11.2108C24.758 11.8483 24.4137 12.392 24.0489 12.9153C23.4574 13.754 22.8336 14.5705 22.2285 15.3955C22.1519 15.5049 22.0819 15.6187 22.0188 15.7364C21.7904 16.1472 21.8074 16.3773 22.1381 16.7199C22.6665 17.2619 23.2307 17.7716 23.7404 18.3307C24.1146 18.7371 24.4523 19.1758 24.7495 19.6415C25.1228 20.2193 24.8927 20.7716 24.1972 20.8705Z" fill="white"/>
</svg>
