<svg width="31" height="30" viewBox="0 0 31 30" fill="none" xmlns="http://www.w3.org/2000/svg">
<g clip-path="url(#clip0_1_179)">
<path d="M15.5518 30C23.836 30 30.5518 23.2843 30.5518 15C30.5518 6.71573 23.836 0 15.5518 0C7.26749 0 0.551758 6.71573 0.551758 15C0.551758 23.2843 7.26749 30 15.5518 30Z" fill="#29A71A"/>
<path d="M22.1654 8.38637C20.6047 6.81017 18.5322 5.84354 16.3217 5.66083C14.1111 5.47813 11.908 6.09138 10.1098 7.38996C8.31159 8.68854 7.0366 10.587 6.51482 12.7428C5.99304 14.8987 6.25883 17.17 7.26423 19.1472L6.2773 23.9386C6.26706 23.9863 6.26677 24.0356 6.27645 24.0834C6.28613 24.1312 6.30557 24.1765 6.33355 24.2165C6.37455 24.2771 6.43306 24.3238 6.50129 24.3503C6.56951 24.3768 6.6442 24.3818 6.71537 24.3648L11.4114 23.2517C13.383 24.2317 15.6383 24.4804 17.776 23.9535C19.9138 23.4267 21.7953 22.1586 23.0857 20.3747C24.3762 18.5909 24.992 16.407 24.8235 14.2118C24.6549 12.0166 23.713 9.95232 22.1654 8.38637ZM20.7012 20.0727C19.6214 21.1495 18.2309 21.8603 16.7258 22.1049C15.2206 22.3496 13.6766 22.1157 12.3114 21.4364L11.6568 21.1125L8.77787 21.7943L8.78639 21.7585L9.38298 18.8608L9.06253 18.2284C8.36496 16.8584 8.11888 15.3028 8.35955 13.7844C8.60022 12.266 9.31528 10.8627 10.4023 9.77557C11.7682 8.41013 13.6204 7.64307 15.5517 7.64307C17.4831 7.64307 19.3353 8.41013 20.7012 9.77557C20.7128 9.78891 20.7253 9.80144 20.7387 9.81307C22.0876 11.182 22.8406 13.0288 22.8336 14.9506C22.8266 16.8725 22.0601 18.7137 20.7012 20.0727Z" fill="white"/>
<path d="M20.4454 17.9472C20.0926 18.5028 19.5352 19.1829 18.8347 19.3517C17.6074 19.6483 15.7239 19.3619 13.3801 17.1767L13.3511 17.1511C11.2903 15.2403 10.7551 13.65 10.8847 12.3886C10.9563 11.6727 11.5528 11.025 12.0557 10.6023C12.1352 10.5344 12.2295 10.4861 12.331 10.4612C12.4325 10.4363 12.5384 10.4355 12.6403 10.4589C12.7421 10.4822 12.8371 10.5291 12.9176 10.5957C12.9982 10.6624 13.062 10.7469 13.104 10.8426L13.8625 12.5472C13.9118 12.6577 13.9301 12.7795 13.9153 12.8997C13.9006 13.0198 13.8535 13.1336 13.779 13.229L13.3955 13.7267C13.3132 13.8295 13.2635 13.9545 13.2529 14.0857C13.2422 14.217 13.2711 14.3484 13.3358 14.4631C13.5506 14.8398 14.0653 15.3937 14.6364 15.9068C15.2773 16.4864 15.9881 17.0165 16.4381 17.1972C16.5585 17.2463 16.6909 17.2584 16.8182 17.2316C16.9455 17.2049 17.0618 17.1406 17.1523 17.0472L17.5972 16.5989C17.683 16.5142 17.7898 16.4538 17.9065 16.4239C18.0233 16.394 18.1459 16.3955 18.2619 16.4284L20.0636 16.9398C20.163 16.9703 20.2541 17.0231 20.33 17.0942C20.4058 17.1653 20.4644 17.2528 20.5012 17.35C20.5381 17.4472 20.5522 17.5515 20.5425 17.655C20.5329 17.7585 20.4997 17.8585 20.4454 17.9472Z" fill="white"/>
</g>
<defs>
<clipPath id="clip0_1_179">
<rect width="30" height="30" fill="white" transform="translate(0.551758)"/>
</clipPath>
</defs>
</svg>
