<svg width="18" height="18" viewBox="0 0 18 18" fill="none" xmlns="http://www.w3.org/2000/svg">
<g clip-path="url(#clip0)">
<path d="M0.418166 18C0.317092 18 0.218764 17.96 0.145842 17.8863C0.0497118 17.7891 0.0126329 17.6479 0.0487505 17.5159L1.21893 13.2428C0.490401 11.9254 0.106291 10.4351 0.106841 8.92227C0.108901 4.00246 4.11259 0 9.032 0C11.4181 0.000961305 13.6601 0.930405 15.3453 2.61681C17.0302 4.30334 17.9577 6.54524 17.957 8.92941C17.9548 13.8494 13.9511 17.8521 9.032 17.8521C9.032 17.8521 9.02829 17.8521 9.02815 17.8521C7.59128 17.8515 6.16676 17.5014 4.89839 16.8381L0.515258 17.9875C0.483123 17.9959 0.450438 18 0.418166 18Z" fill="#E5E5E5"/>
<path d="M0.418167 17.617L1.62996 13.1918C0.882477 11.8967 0.489304 10.4276 0.489853 8.92242C0.491776 4.21382 4.32353 0.383026 9.032 0.383026C11.3169 0.383987 13.4616 1.27333 15.0743 2.8875C16.687 4.50166 17.5748 6.64729 17.574 8.92929C17.5719 13.6378 13.7396 17.4691 9.032 17.4691C9.03172 17.4691 9.03214 17.4691 9.032 17.4691H9.02829C7.5987 17.4686 6.19409 17.11 4.94646 16.4295L0.418167 17.617ZM5.15616 14.8836L5.41557 15.0373C6.50542 15.6841 7.75498 16.0262 9.02925 16.0269H9.032C12.9451 16.0269 16.13 12.8425 16.1316 8.92874C16.1323 7.03209 15.3946 5.2486 14.0541 3.90703C12.7135 2.56546 10.9311 1.82622 9.03461 1.82539C5.11839 1.82539 1.93359 5.00937 1.93208 8.92297C1.93153 10.2641 2.30672 11.5701 3.01753 12.7003L3.18645 12.969L2.46904 15.5881L5.15616 14.8836Z" fill="white"/>
<path d="M0.71521 17.3188L1.88512 13.0467C1.16331 11.7964 0.783875 10.378 0.784287 8.92516C0.786072 4.37956 4.48531 0.681427 9.03049 0.681427C11.2365 0.682388 13.3071 1.54097 14.8637 3.09924C16.4207 4.65752 17.2777 6.72885 17.2768 8.93161C17.2749 13.4773 13.5755 17.1759 9.0309 17.1759C9.03049 17.1759 9.03104 17.1759 9.0309 17.1759H9.02719C7.64717 17.1753 6.29105 16.829 5.08667 16.1726L0.71521 17.3188Z" fill="#64B161"/>
<path d="M0.418167 17.617L1.62996 13.1918C0.882477 11.8967 0.489304 10.4276 0.489853 8.92242C0.491776 4.21382 4.32353 0.383026 9.032 0.383026C11.3169 0.383987 13.4616 1.27333 15.0743 2.8875C16.687 4.50166 17.5748 6.64729 17.574 8.92929C17.5719 13.6378 13.7396 17.4691 9.032 17.4691C9.03172 17.4691 9.03214 17.4691 9.032 17.4691H9.02829C7.5987 17.4686 6.19409 17.11 4.94646 16.4295L0.418167 17.617ZM5.15616 14.8836L5.41557 15.0373C6.50542 15.6841 7.75498 16.0262 9.02925 16.0269H9.032C12.9451 16.0269 16.13 12.8425 16.1316 8.92874C16.1323 7.03209 15.3946 5.2486 14.0541 3.90703C12.7135 2.56546 10.9311 1.82622 9.03461 1.82539C5.11839 1.82539 1.93359 5.00937 1.93208 8.92297C1.93153 10.2641 2.30672 11.5701 3.01753 12.7003L3.18645 12.969L2.46904 15.5881L5.15616 14.8836Z" fill="white"/>
<path fill-rule="evenodd" clip-rule="evenodd" d="M6.89709 5.35242C6.73724 4.99701 6.56887 4.98987 6.41671 4.98369C6.29229 4.97833 6.14988 4.97861 6.00774 4.97861C5.86547 4.97861 5.63421 5.03217 5.43865 5.24571C5.24296 5.45926 4.69144 5.97562 4.69144 7.02577C4.69144 8.07607 5.45637 9.09079 5.56307 9.23334C5.66978 9.37575 7.03963 11.5997 9.20902 12.4552C11.012 13.1663 11.3788 13.0249 11.7702 12.9893C12.1616 12.9537 13.0329 12.4729 13.2108 11.9746C13.3888 11.4762 13.3888 11.0491 13.3353 10.9597C13.2819 10.8709 13.1397 10.8174 12.9262 10.7107C12.7128 10.604 11.6635 10.0875 11.4678 10.0164C11.2721 9.94512 11.1298 9.90968 10.9876 10.1234C10.8452 10.3368 10.4365 10.8174 10.3119 10.9597C10.1874 11.1024 10.0628 11.1202 9.84939 11.0134C9.63598 10.9064 8.94851 10.6812 8.13305 9.95404C7.49859 9.38838 7.07012 8.68965 6.94556 8.47597C6.82114 8.26256 6.9435 8.15709 7.03936 8.0405C7.21198 7.83052 7.50161 7.453 7.57275 7.31073C7.64388 7.16818 7.60831 7.04363 7.55503 6.93678C7.50161 6.83008 7.08674 5.77457 6.89709 5.35242Z" fill="white"/>
</g>
<defs>
<clipPath id="clip0">
<rect width="18" height="18" fill="white"/>
</clipPath>
</defs>
</svg>
