<svg width="24" height="24" viewBox="0 0 24 24" fill="none" xmlns="http://www.w3.org/2000/svg">
<g clip-path="url(#clip0)">
<path d="M24 12.0011C24 5.37311 18.6274 0.000946045 12.0002 0.000946045C5.37264 0.000946045 0 5.37311 0 12.0011C0 18.6281 5.37264 24.0007 12.0002 24.0007C18.6274 24.0007 24 18.6281 24 12.0011Z" fill="url(#paint0_linear)"/>
<path d="M6.68574 8.39695C6.68574 7.72386 6.90182 7.04182 7.33407 6.35097C7.76617 5.66013 8.39694 5.08799 9.22593 4.63446C10.055 4.18107 11.0222 3.95425 12.1275 3.95425C13.1548 3.95425 14.0619 4.14392 14.8484 4.52286C15.6349 4.902 16.2424 5.4175 16.6712 6.06931C17.0998 6.72131 17.3142 7.42976 17.3142 8.195C17.3142 8.79732 17.192 9.3253 16.9475 9.77864C16.703 10.2322 16.4124 10.6236 16.0759 10.9531C15.7393 11.2826 15.1353 11.837 14.2638 12.6165C14.0229 12.8362 13.8297 13.0293 13.6845 13.1958C13.5392 13.3623 13.4311 13.5146 13.3604 13.6527C13.2894 13.7909 13.2344 13.9291 13.1956 14.0673C13.1566 14.2054 13.0981 14.4482 13.0203 14.7953C12.8856 15.5323 12.4639 15.9007 11.7555 15.9007C11.387 15.9007 11.0769 15.7803 10.8255 15.5393C10.5739 15.2985 10.4482 14.9406 10.4482 14.4659C10.4482 13.8706 10.5402 13.3551 10.7245 12.9194C10.9087 12.4836 11.1532 12.101 11.4579 11.7716C11.7624 11.442 12.1735 11.0506 12.6908 10.5971C13.1442 10.2003 13.472 9.90092 13.674 9.69897C13.8759 9.49702 14.0459 9.27219 14.1841 9.02404C14.3223 8.77609 14.3914 8.5069 14.3914 8.21628C14.3914 7.64946 14.1805 7.17121 13.759 6.78143C13.3373 6.39185 12.7934 6.19686 12.1275 6.19686C11.3479 6.19686 10.774 6.39349 10.4057 6.78676C10.0372 7.18002 9.72547 7.75927 9.47035 8.52451C9.22941 9.3253 8.77235 9.72553 8.09926 9.72553C7.70232 9.72553 7.36754 9.58569 7.09487 9.30571C6.8221 9.02583 6.68574 8.72293 6.68574 8.39695ZM11.8724 20.0458C11.4401 20.0458 11.0628 19.9058 10.7405 19.626C10.418 19.3462 10.2569 18.9547 10.2569 18.4515C10.2569 18.0051 10.4126 17.6297 10.7245 17.3249C11.0362 17.0203 11.4189 16.8679 11.8724 16.8679C12.3188 16.8679 12.6943 17.0203 12.999 17.3249C13.3036 17.6297 13.456 18.0051 13.456 18.4515C13.456 18.9476 13.2966 19.3373 12.9777 19.6207C12.6589 19.904 12.2905 20.0458 11.8724 20.0458Z" fill="white"/>
</g>
<defs>
<linearGradient id="paint0_linear" x1="22.9091" y1="20.7272" x2="-4.90909" y2="-3.27281" gradientUnits="userSpaceOnUse">
<stop stop-color="#EE6402"/>
<stop offset="1" stop-color="#FFB200"/>
</linearGradient>
<clipPath id="clip0">
<rect width="24" height="24" fill="white"/>
</clipPath>
</defs>
</svg>
