<svg width="24" height="24" viewBox="0 0 24 24" fill="none" xmlns="http://www.w3.org/2000/svg">
<path d="M22.4 0.960014V23.04C22.4 23.5702 21.9702 24 21.44 24H2.55999C2.02981 24 1.59997 23.5702 1.59997 23.04V0.960014C1.60002 0.429782 2.02981 0 2.55999 0H21.44C21.9702 0 22.4 0.429782 22.4 0.960014Z" fill="#6E8384"/>
<path d="M22.4 8.14941H1.60003V9.42943H22.4V8.14941Z" fill="#3A556A"/>
<path d="M6.3715 10.8032H3.2V13.6547H6.3715V10.8032Z" fill="#E1E6E9"/>
<path d="M6.3716 13.6541H3.2L6.3716 10.8025V13.6541Z" fill="#D5D6DB"/>
<path d="M11.1811 10.8032H8.0096V13.6547H11.1811V10.8032Z" fill="#E1E6E9"/>
<path d="M11.1811 13.6541H8.00945L11.1811 10.8025V13.6541Z" fill="#D5D6DB"/>
<path d="M15.9903 10.8032H12.8188V13.6547H15.9903V10.8032Z" fill="#E1E6E9"/>
<path d="M15.9905 13.6541H12.8189L15.9905 10.8025V13.6541Z" fill="#D5D6DB"/>
<path d="M6.3715 15.2928H3.2V18.1443H6.3715V15.2928Z" fill="#E1E6E9"/>
<path d="M11.1811 15.2928H8.00961V18.1443H11.1811V15.2928Z" fill="#E1E6E9"/>
<path d="M15.9904 15.2928H12.8188V18.1443H15.9904V15.2928Z" fill="#E1E6E9"/>
<path d="M6.3716 18.1434H3.2L6.3716 15.2917V18.1434Z" fill="#D5D6DB"/>
<path d="M11.1811 18.1434H8.00945L11.1811 15.2917V18.1434Z" fill="#D5D6DB"/>
<path d="M15.9906 18.1434H12.8189L15.9906 15.2917V18.1434Z" fill="#D5D6DB"/>
<path d="M6.3715 19.7824H3.2V22.6339H6.3715V19.7824Z" fill="#E1E6E9"/>
<path d="M11.1811 19.7824H8.00961V22.6339H11.1811V19.7824Z" fill="#E1E6E9"/>
<path d="M15.9904 19.7824H12.8188V22.6339H15.9904V19.7824Z" fill="#E1E6E9"/>
<path d="M6.3716 22.6327H3.2L6.3716 19.7811V22.6327Z" fill="#D5D6DB"/>
<path d="M11.1811 22.6327H8.00945L11.1811 19.7811V22.6327Z" fill="#D5D6DB"/>
<path d="M15.9906 22.6327H12.8189L15.9906 19.7811V22.6327Z" fill="#D5D6DB"/>
<path d="M20.8003 10.8032H17.6288V13.6547H20.8003V10.8032Z" fill="#FCD462"/>
<path d="M20.8 13.6541H17.6283L20.8 10.8025V13.6541Z" fill="#FFB300"/>
<path d="M20.8003 15.2928H17.6288V22.6336H20.8003V15.2928Z" fill="#FFB300"/>
<path d="M20.8 22.6326H17.6283L20.8 15.2917V22.6326Z" fill="#FF8500"/>
<rect x="2.88" y="0.959991" width="18.24" height="6.72" rx="0.5" fill="#BAD1CF"/>
<mask id="mask0" mask-type="alpha" maskUnits="userSpaceOnUse" x="2" y="0" width="20" height="8">
<rect x="2.88" y="0.959991" width="18.24" height="6.72" rx="0.5" fill="#BAD1CF"/>
</mask>
<g mask="url(#mask0)">
<path d="M13.6216 4.93715L21.12 2.88V7.68001H4.8L13.6216 4.93715Z" fill="#ABC2C0"/>
</g>
</svg>
