<svg width="30" height="26" viewBox="0 0 30 26" fill="none" xmlns="http://www.w3.org/2000/svg">
<path d="M29.9579 14.6983C29.9578 14.6982 29.9578 14.6981 29.9577 14.698L24.2936 0.475847C24.1734 0.173663 23.8309 0.0261421 23.5287 0.146353C23.5285 0.146427 23.5283 0.1465 23.5281 0.146647L0.549451 9.29651C0.455741 9.337 0.374472 9.40163 0.313888 9.48378C0.122787 9.58309 0.00206118 9.77963 0 9.99495V25.3066C0 25.6318 0.263684 25.8955 0.588908 25.8955H25.323C25.6483 25.8955 25.9119 25.6318 25.9119 25.3066V16.9441L29.6291 15.4636C29.9312 15.343 30.0784 15.0004 29.9579 14.6983ZM24.7341 24.7176H1.17782V10.5839H24.7341V24.7176ZM9.82593 9.40899L19.6866 5.4798C20.5667 6.40482 21.7861 6.93057 23.0628 6.93558L24.0463 9.40899H9.82593ZM25.9119 15.6791V9.99495C25.9119 9.66973 25.6483 9.40605 25.323 9.40605H25.3136L24.0657 6.27188C24.0519 6.24575 24.0358 6.22086 24.0174 6.19768C23.9543 5.91404 23.6916 5.72051 23.402 5.74422C22.214 5.8525 21.0519 5.35208 20.3144 4.41446C20.1309 4.18795 19.8083 4.13164 19.5588 4.28255C19.5308 4.28586 19.5031 4.29101 19.4758 4.29786L7.43732 9.09157C7.29164 9.14869 7.17511 9.26198 7.11401 9.40605H3.45807L23.4173 1.45873L28.6462 14.5884L25.9119 15.6791Z" fill="#FF3F3F"/>
<path d="M2.77595 20.742C3.91931 21.0799 4.81401 21.9735 5.15337 23.1165C5.22779 23.3659 5.45725 23.5369 5.71754 23.5369C5.74809 23.535 5.77842 23.5305 5.80824 23.5234C5.83466 23.5309 5.86168 23.5364 5.88892 23.5399H20.0227C20.047 23.5367 20.071 23.5318 20.0946 23.5252C20.3888 23.5967 20.6853 23.4163 20.7569 23.1221C20.7571 23.121 20.7574 23.1199 20.7577 23.1188C21.0961 21.9747 21.991 21.0799 23.1351 20.7414C23.4125 20.6566 23.5849 20.3801 23.5391 20.0936C23.547 20.065 23.5526 20.0359 23.5562 20.0064V15.2952C23.5527 15.2657 23.5468 15.2365 23.5385 15.208C23.5846 14.9214 23.4122 14.6448 23.1345 14.5602C21.9904 14.2218 21.0958 13.3266 20.7583 12.1822C20.673 11.9028 20.3938 11.73 20.1057 11.7782C20.0785 11.7706 20.0508 11.7651 20.0227 11.7617H5.88892C5.85925 11.7653 5.82988 11.7711 5.80117 11.7794C5.51474 11.7337 5.23839 11.9061 5.15337 12.1834C4.81467 13.3273 3.9199 14.2218 2.77595 14.5602C2.4985 14.645 2.3261 14.9215 2.37196 15.208C2.3643 15.2366 2.35878 15.2657 2.35547 15.2952V20.0064C2.35885 20.0341 2.36438 20.0615 2.37196 20.0883C2.32367 20.3766 2.49644 20.6562 2.77595 20.742ZM3.53328 15.5343C4.71581 15.0593 5.65306 14.1221 6.12801 12.9395H19.783C20.2582 14.1221 21.1957 15.0593 22.3783 15.5343V19.7673C21.1962 20.2428 20.2591 21.1799 19.7836 22.3621H6.12801C5.65254 21.1799 4.71544 20.2428 3.53328 19.7673V15.5343Z" fill="#FF3F3F"/>
<path d="M12.9563 21.1841C14.9078 21.1841 16.4897 19.6021 16.4897 17.6506C16.4897 15.6991 14.9078 14.1172 12.9563 14.1172C11.0048 14.1172 9.42285 15.6991 9.42285 17.6506C9.42477 19.6013 11.0056 21.1822 12.9563 21.1841ZM12.9563 15.295C14.2573 15.295 15.3119 16.3497 15.3119 17.6506C15.3119 18.9516 14.2573 20.0063 12.9563 20.0063C11.6553 20.0063 10.6007 18.9516 10.6007 17.6506C10.6007 16.3497 11.6553 15.295 12.9563 15.295Z" fill="#FF3F3F"/>
<path d="M6.47809 18.5343C6.96592 18.5343 7.36145 18.1388 7.36145 17.6509C7.36145 17.1631 6.96592 16.7676 6.47809 16.7676C5.99025 16.7676 5.59473 17.1631 5.59473 17.6509C5.59473 18.1389 5.99025 18.5343 6.47809 18.5343ZM6.47809 17.3565C6.6407 17.3565 6.77254 17.4883 6.77254 17.6509C6.77254 17.8136 6.6407 17.9454 6.47809 17.9454C6.31548 17.9454 6.18363 17.8136 6.18363 17.6509C6.18363 17.4883 6.31548 17.3565 6.47809 17.3565Z" fill="#FF3F3F"/>
<path d="M19.4341 18.5343C19.922 18.5343 20.3175 18.1388 20.3175 17.6509C20.3175 17.1631 19.922 16.7676 19.4341 16.7676C18.9463 16.7676 18.5508 17.1631 18.5508 17.6509C18.5508 18.1389 18.9463 18.5343 19.4341 18.5343ZM19.4341 17.3565C19.5968 17.3565 19.7286 17.4883 19.7286 17.6509C19.7286 17.8136 19.5968 17.9454 19.4341 17.9454C19.2715 17.9454 19.1397 17.8136 19.1397 17.6509C19.1397 17.4883 19.2715 17.3565 19.4341 17.3565Z" fill="#FF3F3F"/>
</svg>
