<svg width="30" height="30" viewBox="0 0 30 30" fill="none" xmlns="http://www.w3.org/2000/svg">
<g clip-path="url(#clip0_5_835)">
<path d="M17.5195 12.7148C17.8429 12.7148 18.1055 12.4525 18.1055 12.1289C18.1055 11.8055 17.8429 11.543 17.5195 11.543C17.1961 11.543 16.9336 11.8055 16.9336 12.1289C16.9336 12.4525 17.1961 12.7148 17.5195 12.7148Z" fill="#FF3F3F"/>
<path d="M26.8453 2.18603C25.1969 2.02124 23.6971 2.99879 23.1681 4.51147H0.585938C0.262299 4.51147 0 4.774 0 5.09741V27.363C0 27.6867 0.262299 27.949 0.585938 27.949H26.4844C28.4409 27.949 30.019 26.3557 29.9995 24.3983C29.9998 24.3905 30 24.3825 30 24.3747V5.85043C30 3.97246 28.6141 2.36273 26.8453 2.18603ZM17.5195 20.9177C17.1959 20.9177 16.9336 21.1802 16.9336 21.5037V23.2615H13.1836V12.7146H15.1172C15.4408 12.7146 15.7031 12.4523 15.7031 12.1287C15.7031 11.8052 15.4408 11.5427 15.1172 11.5427H12.5977C12.274 11.5427 12.0117 11.8052 12.0117 12.1287V23.2615H9.72656V20.3318C9.72656 20.0084 9.46426 19.7458 9.14062 19.7458C8.81699 19.7458 8.55469 20.0084 8.55469 20.3318V23.2615H4.6875V16.8162H9.14062C9.46426 16.8162 9.72656 16.5539 9.72656 16.2302C9.72656 15.9068 9.46426 15.6443 9.14062 15.6443H4.6875V9.19897H8.55469V12.1287C8.55469 12.4523 8.81699 12.7146 9.14062 12.7146C9.46426 12.7146 9.72656 12.4523 9.72656 12.1287V9.19897H22.9688V11.5427H19.8633C19.5396 11.5427 19.2773 11.8052 19.2773 12.1287C19.2773 12.4523 19.5396 12.7146 19.8633 12.7146H22.9688V17.4021H18.1055V15.6443C18.1055 15.3209 17.8432 15.0583 17.5195 15.0583C17.1959 15.0583 16.9336 15.3209 16.9336 15.6443V17.988C16.9336 18.3117 17.1959 18.574 17.5195 18.574H22.9688V23.2615H18.1055V21.5037C18.1055 21.1802 17.8432 20.9177 17.5195 20.9177ZM26.4844 26.7771H1.17188V5.68335H22.9688V8.0271H4.10156C3.77792 8.0271 3.51562 8.28962 3.51562 8.61303V23.8474C3.51562 24.171 3.77792 24.4333 4.10156 24.4333H23.5547C23.5583 24.4333 23.562 24.4329 23.5657 24.4329C23.8607 24.4439 24.1221 24.2319 24.1665 23.9337C24.3615 22.6229 25.673 21.7556 27.1896 22.191C27.9527 22.4105 28.6246 23.0802 28.7869 23.9852L28.8274 24.3967C28.8476 25.7057 27.7954 26.7771 26.4844 26.7771ZM28.8281 21.7898C28.4532 21.4574 28.0055 21.2063 27.5132 21.0649C26.35 20.7307 25.0818 20.9253 24.1406 21.7163V5.68335C24.1406 4.29403 25.3299 3.21119 26.7284 3.35196C27.906 3.46983 28.8281 4.56709 28.8281 5.85043V21.7898Z" fill="#FF3F3F"/>
</g>
<defs>
<clipPath id="clip0_5_835">
<rect width="30" height="30" fill="white"/>
</clipPath>
</defs>
</svg>
