<svg width="30" height="30" viewBox="0 0 30 30" fill="none" xmlns="http://www.w3.org/2000/svg">
<g clip-path="url(#clip0_5_828)">
<path d="M22.5 0H7.5C5.51088 0 3.60322 0.790176 2.1967 2.1967C0.790176 3.60322 0 5.51088 0 7.5L0 22.5C0 24.4891 0.790176 26.3968 2.1967 27.8033C3.60322 29.2098 5.51088 30 7.5 30H22.5C24.4891 30 26.3968 29.2098 27.8033 27.8033C29.2098 26.3968 30 24.4891 30 22.5V7.5C30 5.51088 29.2098 3.60322 27.8033 2.1967C26.3968 0.790176 24.4891 0 22.5 0V0ZM28.5938 22.5C28.5919 24.1156 27.9493 25.6645 26.8069 26.8069C25.6645 27.9493 24.1156 28.5919 22.5 28.5938H7.5C5.88441 28.5919 4.33552 27.9493 3.19312 26.8069C2.05073 25.6645 1.40811 24.1156 1.40625 22.5V7.5C1.40811 5.88441 2.05073 4.33552 3.19312 3.19312C4.33552 2.05073 5.88441 1.40811 7.5 1.40625H22.5C24.1156 1.40811 25.6645 2.05073 26.8069 3.19312C27.9493 4.33552 28.5919 5.88441 28.5938 7.5V22.5Z" fill="#FF3F3F"/>
<path d="M21.3281 20.3334L9.66656 8.67188H14.2795V7.26562H7.26562V14.2795H8.67188V9.66609L20.3339 21.3281H15.7205V22.7344H22.7344V15.7205H21.3281V20.3334Z" fill="#FF3F3F"/>
</g>
<defs>
<clipPath id="clip0_5_828">
<rect width="30" height="30" fill="white"/>
</clipPath>
</defs>
</svg>
