<svg width="30" height="30" viewBox="0 0 30 30" fill="none" xmlns="http://www.w3.org/2000/svg">
<path d="M28.5938 20.8204V4.13086C28.5938 3.14543 27.792 2.34375 26.8066 2.34375H22.5586V1.75781C22.5586 0.788555 21.77 0 20.8008 0C19.8315 0 19.043 0.788555 19.043 1.75781V2.34375H9.55078V1.75781C9.55078 0.788555 8.76223 0 7.79297 0C6.82371 0 6.03516 0.788555 6.03516 1.75781V2.34375H1.78711C0.801738 2.34375 0 3.14543 0 4.13086V25.8691C0 26.8546 0.801738 27.6562 1.78711 27.6562H9.7735C10.0971 27.6562 10.3594 27.3939 10.3594 27.0703C10.3594 26.7467 10.0971 26.4844 9.7735 26.4844H1.78711C1.44785 26.4844 1.17188 26.2084 1.17188 25.8691V4.13086C1.17188 3.7916 1.44785 3.51562 1.78711 3.51562H6.03516V4.10156C6.03516 5.07082 6.82371 5.85938 7.79297 5.85938C8.76223 5.85938 9.55078 5.07082 9.55078 4.10156V3.51562H19.043V4.10156C19.043 5.07082 19.8315 5.85938 20.8008 5.85938C21.77 5.85938 22.5586 5.07082 22.5586 4.10156V3.51562H26.8066C27.1459 3.51562 27.4219 3.7916 27.4219 4.13086V7.03125H5.27344C4.94988 7.03125 4.6875 7.29357 4.6875 7.61719C4.6875 7.9408 4.94988 8.20312 5.27344 8.20312H27.4219V19.8303C26.923 19.5156 26.3705 19.2789 25.7812 19.1371V10.4297C25.7812 10.1061 25.5189 9.84375 25.1953 9.84375H3.39844C3.07488 9.84375 2.8125 10.1061 2.8125 10.4297V24.2578C2.8125 24.5814 3.07488 24.8438 3.39844 24.8438H18.9959C19.0323 25.4188 19.1572 25.9702 19.3574 26.4844H14.4609C14.1374 26.4844 13.875 26.7467 13.875 27.0703C13.875 27.3939 14.1374 27.6562 14.4609 27.6562H19.9865C20.9842 29.0727 22.6318 30 24.4922 30C27.5292 30 30 27.5292 30 24.4922C30 23.0828 29.4676 21.7956 28.5938 20.8204ZM8.37891 4.10156C8.37891 4.42465 8.11605 4.6875 7.79297 4.6875C7.46988 4.6875 7.20703 4.42465 7.20703 4.10156V1.75781C7.20703 1.43473 7.46988 1.17188 7.79297 1.17188C8.11605 1.17188 8.37891 1.43473 8.37891 1.75781V4.10156ZM21.3867 4.10156C21.3867 4.42465 21.1239 4.6875 20.8008 4.6875C20.4777 4.6875 20.2148 4.42465 20.2148 4.10156V1.75781C20.2148 1.43473 20.4777 1.17188 20.8008 1.17188C21.1239 1.17188 21.3867 1.43473 21.3867 1.75781V4.10156ZM24.4922 18.9844C24.2198 18.9844 23.952 19.0046 23.69 19.043H21.4219V15.6445H24.6094V18.9858C24.5704 18.985 24.5314 18.9844 24.4922 18.9844ZM19.0455 23.6719H17.0625V20.2148H20.25V20.9832C19.6252 21.7373 19.1972 22.66 19.0455 23.6719ZM3.98438 15.6445H7.17188V19.043H3.98438V15.6445ZM8.34375 15.6445H11.5312V19.043H8.34375V15.6445ZM17.0625 15.6445H20.25V19.043H17.0625V15.6445ZM15.8906 19.043H12.7031V15.6445H15.8906V19.043ZM17.0625 14.4727V11.0156H20.25V14.4727H17.0625ZM15.8906 14.4727H12.7031V11.0156H15.8906V14.4727ZM11.5312 14.4727H8.34375V11.0156H11.5312V14.4727ZM11.5312 20.2148V23.6719H8.34375V20.2148H11.5312ZM12.7031 20.2148H15.8906V23.6719H12.7031V20.2148ZM24.6094 14.4727H21.4219V11.0156H24.6094V14.4727ZM7.17188 11.0156V14.4727H3.98438V11.0156H7.17188ZM3.98438 20.2148H7.17188V23.6719H3.98438V20.2148ZM24.4922 28.8281C22.1013 28.8281 20.1562 26.883 20.1562 24.4922C20.1562 22.1013 22.1013 20.1562 24.4922 20.1562C26.883 20.1562 28.8281 22.1013 28.8281 24.4922C28.8281 26.883 26.883 28.8281 24.4922 28.8281Z" fill="#FF3F3F"/>
<path d="M26.1873 23.072L24.375 24.8843L23.5687 24.0779C23.3399 23.8491 22.969 23.8491 22.74 24.0779C22.5112 24.3067 22.5112 24.6777 22.74 24.9065L23.9606 26.1272C24.0706 26.2371 24.2196 26.2988 24.375 26.2988C24.5304 26.2988 24.6794 26.2371 24.7893 26.1272L27.0158 23.9006C27.2446 23.6718 27.2446 23.3008 27.0158 23.0719C26.787 22.8432 26.4161 22.8432 26.1873 23.072Z" fill="#FF3F3F"/>
<path d="M12.1172 26.4844C11.9631 26.4844 11.8119 26.5471 11.7029 26.6561C11.594 26.765 11.5312 26.9162 11.5312 27.0703C11.5312 27.2244 11.5939 27.3756 11.7029 27.4846C11.8119 27.5936 11.9631 27.6562 12.1172 27.6562C12.2713 27.6562 12.4225 27.5936 12.5314 27.4846C12.6404 27.3756 12.7031 27.2244 12.7031 27.0703C12.7031 26.9162 12.6404 26.765 12.5314 26.6561C12.4225 26.5471 12.2713 26.4844 12.1172 26.4844Z" fill="#FF3F3F"/>
<path d="M3.34389 8.03145C3.45293 7.92246 3.51562 7.77129 3.51562 7.61719C3.51562 7.46309 3.45293 7.31191 3.34389 7.20293C3.23496 7.09395 3.08379 7.03125 2.92969 7.03125C2.77494 7.03125 2.62441 7.09395 2.51543 7.20293C2.40645 7.31191 2.34375 7.46309 2.34375 7.61719C2.34375 7.77129 2.40639 7.92246 2.51543 8.03145C2.62447 8.14043 2.77494 8.20312 2.92969 8.20312C3.08379 8.20312 3.23496 8.14043 3.34389 8.03145Z" fill="#FF3F3F"/>
</svg>
