<svg width="40" height="40" viewBox="0 0 40 40" fill="none" xmlns="http://www.w3.org/2000/svg">
<path d="M35.7321 7.65131H36.968C37.3991 7.65131 37.7487 7.30169 37.7487 6.87057C37.7487 6.43945 37.3991 6.08983 36.968 6.08983H34.0012C33.5701 6.08983 33.2205 6.43945 33.2205 6.87057V9.83737C33.2205 10.2685 33.5701 10.6181 34.0012 10.6181C34.4323 10.6181 34.7819 10.2685 34.7819 9.83737V8.97833C37.1509 12.1498 38.4385 15.9978 38.4385 20C38.4385 30.1671 30.1671 38.4385 20 38.4385C9.83292 38.4385 1.56148 30.1671 1.56148 20C1.56148 9.83292 9.83292 1.56148 20 1.56148C20.7519 1.56148 21.5087 1.60715 22.2495 1.69717C22.6769 1.74885 23.0667 1.44444 23.1187 1.01636C23.1708 0.588364 22.866 0.199088 22.4379 0.147091C21.6349 0.0494988 20.8147 0 20 0C14.6578 0 9.63532 2.08035 5.85787 5.85787C2.08035 9.63532 0 14.6578 0 20C0 25.3422 2.08035 30.3647 5.85787 34.1421C9.63532 37.9196 14.6578 40 20 40C25.3422 40 30.3647 37.9196 34.1421 34.1421C37.9196 30.3647 40 25.3422 40 20C40 15.4919 38.494 11.1642 35.7321 7.65131Z" fill="#FF3F3F"/>
<path d="M8.46882 11.7902C8.10445 11.5595 7.62219 11.6681 7.39148 12.0322C5.60913 14.8472 4.82012 18.2326 5.16981 21.5649C5.52466 24.9466 7.0467 28.1356 9.45559 30.5446C12.3627 33.4516 16.1813 34.9052 20.0001 34.9052C23.8188 34.9052 27.6374 33.4517 30.5446 30.5446C36.3588 24.7303 36.3588 15.2698 30.5446 9.45567C28.1393 7.05053 24.9556 5.52903 21.5795 5.17145C18.2534 4.81895 14.8716 5.6018 12.0578 7.3754C11.693 7.60533 11.5837 8.08743 11.8136 8.45219C12.0435 8.81703 12.5256 8.92626 12.8904 8.69641C18.1945 5.35329 25 6.11943 29.4404 10.5598C34.6458 15.7652 34.6458 24.235 29.4404 29.4404C24.235 34.6459 15.7651 34.6459 10.5598 29.4404C6.18079 25.0614 5.40317 18.0915 8.71085 12.8676C8.9414 12.5032 8.83311 12.0209 8.46882 11.7902Z" fill="#FF3F3F"/>
<path d="M30.1497 20.7934H31.1125C31.5436 20.7934 31.8932 20.4438 31.8932 20.0126C31.8932 19.5815 31.5436 19.2319 31.1125 19.2319H30.1497C29.7185 19.2319 29.3689 19.5815 29.3689 20.0126C29.3689 20.4438 29.7185 20.7934 30.1497 20.7934Z" fill="#FF3F3F"/>
<path d="M8.10679 19.9873C8.10679 20.4185 8.4564 20.7681 8.88753 20.7681H9.85033C10.2815 20.7681 10.6311 20.4185 10.6311 19.9873C10.6311 19.5562 10.2815 19.2066 9.85033 19.2066H8.88753C8.4564 19.2066 8.10679 19.5561 8.10679 19.9873Z" fill="#FF3F3F"/>
<path d="M20.7934 9.85034V8.88753C20.7934 8.45641 20.4438 8.1068 20.0126 8.1068C19.5815 8.1068 19.2319 8.45641 19.2319 8.88753V9.85034C19.2319 10.2815 19.5815 10.6311 20.0126 10.6311C20.4438 10.6311 20.7934 10.2815 20.7934 9.85034Z" fill="#FF3F3F"/>
<path d="M19.2066 30.1497V31.1125C19.2066 31.5436 19.5562 31.8932 19.9874 31.8932C20.4185 31.8932 20.7681 31.5436 20.7681 31.1125V30.1497C20.7681 29.7185 20.4185 29.3689 19.9874 29.3689C19.5562 29.3689 19.2066 29.7185 19.2066 30.1497Z" fill="#FF3F3F"/>
<path d="M16.0866 14.9824C15.7817 14.6776 15.2875 14.6776 14.9824 14.9824C14.6776 15.2873 14.6776 15.7817 14.9824 16.0866L17.6284 18.7326C17.4257 19.1105 17.3104 19.542 17.3104 20C17.3104 21.4831 18.5169 22.6896 20 22.6896C21.4831 22.6896 22.6896 21.4831 22.6896 20C22.6896 19.542 22.5742 19.1105 22.3716 18.7326L27.7105 13.3937C28.0154 13.0888 28.0154 12.5945 27.7105 12.2895C27.4055 11.9847 26.9113 11.9847 26.6063 12.2895L21.2674 17.6284C20.8895 17.4257 20.458 17.3104 20 17.3104C19.542 17.3104 19.1105 17.4258 18.7326 17.6284L16.0866 14.9824ZM21.1282 20C21.1282 20.6221 20.6221 21.1282 20 21.1282C19.3779 21.1282 18.8718 20.6221 18.8718 20C18.8718 19.3779 19.3779 18.8718 20 18.8718C20.6221 18.8718 21.1282 19.3779 21.1282 20Z" fill="#FF3F3F"/>
<path d="M10.5593 10.5593C10.7053 10.4141 10.7888 10.2127 10.7888 10.0073C10.7888 9.80201 10.7053 9.60136 10.5593 9.45536C10.4141 9.31023 10.2134 9.22661 10.0073 9.22661C9.802 9.22661 9.60057 9.31015 9.45536 9.45536C9.31022 9.60058 9.2266 9.80201 9.2266 10.0073C9.2266 10.2135 9.31014 10.4141 9.45536 10.5593C9.60057 10.7045 9.802 10.7881 10.0073 10.7881C10.2134 10.7881 10.4141 10.7045 10.5593 10.5593Z" fill="#FF3F3F"/>
<path d="M25.4082 2.33268C25.6144 2.33268 25.8158 2.24985 25.9609 2.10393C26.1061 1.95871 26.1898 1.75798 26.1898 1.55195C26.1898 1.34661 26.1062 1.14518 25.9609 0.999966C25.8158 0.854827 25.6144 0.77121 25.4082 0.77121C25.2028 0.77121 25.0014 0.854749 24.8563 0.999966C24.711 1.14518 24.6274 1.34661 24.6274 1.55195C24.6274 1.75806 24.711 1.95871 24.8563 2.10393C25.0014 2.24985 25.2028 2.33268 25.4082 2.33268Z" fill="#FF3F3F"/>
</svg>
