<svg width="40" height="40" viewBox="0 0 40 40" fill="none" xmlns="http://www.w3.org/2000/svg">
<g clip-path="url(#clip0_2_17)">
<path d="M39.0549 18.7161C38.4561 18.1637 37.6416 17.8226 36.8201 17.7798C35.8872 17.7316 35.0131 18.0643 34.3622 18.7155L29.9146 23.1164C29.8267 22.9642 29.7263 22.8204 29.6137 22.6871C29.0665 22.0373 28.2663 21.6797 27.3609 21.6797H21.1347C19.9606 21.6797 18.8153 21.5274 17.7307 21.2274C14.903 20.4452 12.2015 21.0165 9.91792 22.8805C8.98927 23.6386 8.31178 24.4632 7.88331 25.0644L6.76698 23.981C6.62019 23.8385 6.42121 23.7576 6.21644 23.7576C6.21461 23.7576 6.21308 23.7576 6.21125 23.7576C5.99915 23.7591 5.79408 23.8473 5.64698 23.9999L0.220037 29.6338C0.0747733 29.7845 -0.00426726 29.9872 0.000310379 30.1965C0.00488802 30.4062 0.0924735 30.6052 0.244146 30.7495L9.42292 39.4894C9.5752 39.6344 9.77052 39.7067 9.96552 39.7067C10.1703 39.7067 10.3751 39.6271 10.5292 39.469L15.9055 33.9532C16.0523 33.8025 16.1337 33.5965 16.1298 33.3859C16.1258 33.1784 16.0388 32.9782 15.8899 32.8335L15.4218 32.3794L16.4932 32.2589C17.1414 32.1835 17.8006 32.1454 18.4531 32.1454H27.926C29.4654 32.1454 30.7727 31.8088 31.8122 31.1447C31.8207 31.1392 31.8292 31.1334 31.8378 31.1276C32.2101 30.8688 32.5479 30.5621 32.8415 30.2164L39.2252 22.7063C40.3177 21.4212 40.2494 19.8175 39.0549 18.7161ZM9.94508 37.8137L1.90247 30.1556L6.23505 25.6576L14.2307 33.4167L9.94508 37.8137ZM38.0261 21.687L31.6425 29.1974C31.4398 29.4357 31.2076 29.6475 30.9516 29.827C30.1712 30.321 29.1535 30.5719 27.926 30.5719H18.4528C17.7402 30.5719 17.0197 30.6137 16.3144 30.6958L13.9591 30.9601L9.02741 26.1743C9.37013 25.6662 10.0003 24.845 10.9131 24.0997C12.8107 22.5506 14.9634 22.0944 17.3111 22.7441C18.5324 23.082 19.8187 23.2535 21.1347 23.2535H27.3609C28.479 23.2535 28.7775 24.2221 28.7775 24.7943C28.7775 25.2124 28.6432 25.6103 28.4091 25.8862C28.1552 26.185 27.7942 26.3364 27.3361 26.3364H21.9162C21.4816 26.3364 21.1295 26.6888 21.1295 27.1234C21.1295 27.558 21.4816 27.9101 21.9162 27.9101H27.3361C28.2511 27.9101 29.0579 27.5531 29.6085 26.9049C30.0665 26.366 30.3278 25.6573 30.3498 24.8999L35.4721 19.8312C36.2042 19.0991 37.348 19.2828 37.988 19.873C38.3188 20.1782 38.7638 20.8194 38.0261 21.687Z" fill="#FF3F3F"/>
<path d="M19.4623 26.9138C19.3631 26.4905 18.9398 26.2283 18.5165 26.3272C18.0936 26.4264 17.8308 26.8497 17.9303 27.273L17.9376 27.305C18.0228 27.6676 18.3459 27.9123 18.703 27.9123C18.7625 27.9123 18.8229 27.9056 18.8834 27.8916C19.3066 27.7924 19.5691 27.3688 19.4699 26.9458L19.4623 26.9138Z" fill="#FF3F3F"/>
<path d="M5.3186 16.9141H12.9858C13.4033 16.9141 13.7897 16.7786 14.104 16.5497C14.4183 16.7786 14.8047 16.9141 15.2222 16.9141H22.8897C23.3072 16.9141 23.6936 16.7786 24.0079 16.5497C24.3222 16.7786 24.7086 16.9141 25.126 16.9141H32.7933C33.8437 16.9141 34.6982 16.0593 34.6982 15.0089V11.4334C34.6982 9.82758 33.7994 8.43262 32.4542 7.74445C33.1061 6.95831 33.4985 5.95001 33.4985 4.85138C33.4985 2.34863 31.4624 0.3125 28.9597 0.3125C26.4569 0.3125 24.4208 2.34863 24.4208 4.85138C24.4208 5.95001 24.8132 6.95862 25.4651 7.74445C24.8837 8.0423 24.386 8.47229 24.0079 8.99384C23.6298 8.47199 23.132 8.04199 22.5504 7.74445C23.2022 6.95862 23.5947 5.95001 23.5947 4.85138C23.5947 2.34863 21.5585 0.3125 19.0558 0.3125C16.553 0.3125 14.5169 2.34863 14.5169 4.85138C14.5169 5.95001 14.9097 6.95862 15.5615 7.74475C14.9799 8.0423 14.4821 8.47229 14.104 8.99414C13.7259 8.47229 13.2282 8.0423 12.6465 7.74445C13.2983 6.95862 13.6908 5.95001 13.6908 4.85169C13.6908 2.34863 11.6547 0.3125 9.15192 0.3125C6.64948 0.3125 4.61334 2.34863 4.61334 4.85169C4.61334 5.95001 5.0058 6.95862 5.65765 7.74475C4.31244 8.43292 3.41339 9.82819 3.41339 11.4337V15.0089C3.41339 16.0593 4.26819 16.9141 5.3186 16.9141ZM28.96 1.88629C30.5948 1.88629 31.9251 3.21625 31.9251 4.85138C31.9251 6.48621 30.5948 7.81647 28.96 7.81647C27.3248 7.81647 25.9949 6.48651 25.9949 4.85138C25.9946 3.21625 27.3248 1.88629 28.96 1.88629ZM26.9156 8.90198C27.5305 9.21356 28.2248 9.39026 28.9597 9.39026C29.6948 9.39026 30.3891 9.21356 31.0037 8.90198C32.2266 9.11499 33.1247 10.1688 33.1247 11.4334V15.0089C33.1247 15.1917 32.9761 15.3403 32.7933 15.3403H25.126C24.9436 15.3403 24.7949 15.1917 24.7949 15.0089V11.4334C24.7946 10.1691 25.6931 9.11499 26.9156 8.90198ZM19.0561 1.88629C20.6909 1.88629 22.0212 3.21625 22.0212 4.85138C22.0212 6.48621 20.6909 7.81647 19.0561 7.81647C17.421 7.81647 16.091 6.48651 16.091 4.85138C16.091 3.21625 17.421 1.88629 19.0561 1.88629ZM17.012 8.90198C17.6267 9.21356 18.3209 9.39026 19.0561 9.39026C19.7913 9.39026 20.4852 9.21356 21.1002 8.90198C22.3227 9.11499 23.2211 10.1688 23.2211 11.4334V15.0089C23.2211 15.1917 23.0725 15.3403 22.8897 15.3403H15.2225C15.0397 15.3403 14.8911 15.1917 14.8911 15.0089V11.4334C14.8911 10.1691 15.7895 9.11499 17.012 8.90198ZM9.15222 1.88629C10.7871 1.88629 12.1173 3.21625 12.1173 4.85138C12.1173 6.48621 10.7871 7.81647 9.15222 7.81647C7.5174 7.81647 6.18713 6.48621 6.18713 4.85138C6.18713 3.21625 7.5174 1.88629 9.15222 1.88629ZM4.98718 11.4334C4.98718 10.1691 5.88562 9.11499 7.10816 8.90198C7.72309 9.21356 8.41706 9.39026 9.15222 9.39026C9.88739 9.39026 10.5814 9.21356 11.1963 8.90198C12.4191 9.11499 13.3173 10.1688 13.3173 11.4334V15.0089C13.3173 15.1917 13.1686 15.3403 12.9858 15.3403H5.3186C5.1358 15.3403 4.98718 15.1917 4.98718 15.0089V11.4334Z" fill="#FF3F3F"/>
</g>
<defs>
<clipPath id="clip0_2_17">
<rect width="40" height="40" fill="white"/>
</clipPath>
</defs>
</svg>
