<svg width="40" height="40" viewBox="0 0 40 40" fill="none" xmlns="http://www.w3.org/2000/svg">
<path d="M35.3137 4.68657C29.0651 -1.56186 18.8982 -1.56186 12.6497 4.68657C6.58655 10.7498 6.40683 20.5026 12.1106 26.7846L9.95007 28.9451L8.78454 27.7796C8.63795 27.6331 8.43924 27.5507 8.23201 27.5507C8.02479 27.5507 7.826 27.6331 7.67949 27.7796L0.940567 34.5186C0.334047 35.125 0 35.9314 0 36.7892C0 37.6469 0.334047 38.4532 0.940489 39.0597C1.54701 39.6662 2.35341 40.0002 3.21107 40.0002C4.06881 40.0002 4.87513 39.6662 5.48165 39.0597L12.2207 32.3208C12.3672 32.1743 12.4495 31.9755 12.4495 31.7683C12.4495 31.5611 12.3672 31.3623 12.2207 31.2158L11.0551 30.0502L13.2156 27.8898C16.2606 30.6545 20.1212 32.0369 23.9817 32.0369C28.0855 32.0369 32.1894 30.4748 35.3137 27.3505C41.5621 21.102 41.5621 10.935 35.3137 4.68657ZM4.3766 37.9546C4.06529 38.2659 3.65139 38.4374 3.21107 38.4374C2.77083 38.4374 2.35685 38.266 2.04562 37.9546C1.73423 37.6433 1.56279 37.2294 1.56279 36.7892C1.56279 36.3489 1.73423 35.9349 2.04562 35.6236L8.23201 29.4371L10.5631 31.7682L4.3766 37.9546ZM34.2086 26.2454C28.5695 31.8846 19.3939 31.8846 13.7548 26.2455C8.11574 20.6063 8.11574 11.4307 13.7548 5.79162C16.5744 2.97203 20.278 1.56224 23.9817 1.56224C27.6853 1.56224 31.389 2.97203 34.2085 5.79162C39.8477 11.4307 39.8477 20.6063 34.2086 26.2454Z" fill="#FF3F3F"/>
<path d="M36.5483 15.8657C36.4878 15.5437 36.2154 15.2922 35.8934 15.2453C35.5691 15.198 35.2357 15.3679 35.0878 15.6614C34.9407 15.9534 34.9876 16.3125 35.2123 16.5522C35.4327 16.7874 35.7831 16.8628 36.081 16.7401C36.4206 16.6004 36.6213 16.2258 36.5483 15.8657Z" fill="#FF3F3F"/>
<path d="M35.4687 18.8437C35.0571 18.7138 34.6182 18.9422 34.4884 19.3538C33.9533 21.0496 33.0413 22.5503 31.7775 23.8141C29.6952 25.8964 26.9266 27.0433 23.9817 27.0433C21.0368 27.0433 18.2682 25.8965 16.1859 23.8141C11.8873 19.5155 11.8873 12.5212 16.1859 8.22263C18.2682 6.14028 21.0368 4.9935 23.9817 4.9935C26.9266 4.9935 29.6952 6.14028 31.7775 8.22263C33.0271 9.47224 33.9661 11.0196 34.4929 12.6972C34.6221 13.109 35.0608 13.3379 35.4725 13.2086C35.8842 13.0793 36.1132 12.6406 35.9839 12.2289C35.3819 10.312 34.3095 8.54448 32.8825 7.1175C30.505 4.73994 27.344 3.43063 23.9817 3.43063C20.6194 3.43063 17.4584 4.73994 15.0808 7.1175C10.1729 12.0254 10.1729 20.0112 15.0808 24.9192C17.4584 27.2967 20.6193 28.6061 23.9817 28.6061C27.344 28.6061 30.505 27.2967 32.8825 24.9192C34.3053 23.4964 35.376 21.7345 35.9788 19.824C36.1086 19.4124 35.8803 18.9735 35.4687 18.8437Z" fill="#FF3F3F"/>
<path d="M26.0618 12.0104L23.0328 15.0395L21.9015 13.908C20.8913 12.8978 19.2476 12.8978 18.2374 13.908C17.2272 14.9182 17.2272 16.5619 18.2374 17.5721L21.6758 21.0105C22.05 21.3846 22.5414 21.5717 23.0329 21.5717C23.5244 21.5717 24.0159 21.3846 24.39 21.0105L29.726 15.6744C30.7362 14.6642 30.7362 13.0206 29.726 12.0103C29.726 12.0103 29.726 12.0103 29.726 12.0102C28.7157 11.0001 27.072 11.0002 26.0618 12.0104ZM28.6209 14.5694L23.2849 19.9055C23.146 20.0445 22.9198 20.0445 22.7808 19.9055L19.3425 16.4672C18.9417 16.0663 18.9417 15.4141 19.3425 15.0132C19.543 14.8128 19.8062 14.7125 20.0695 14.7125C20.3328 14.7125 20.5961 14.8128 20.7965 15.0131L22.4804 16.697C22.627 16.8436 22.8257 16.9259 23.0329 16.9259C23.2401 16.9259 23.4389 16.8435 23.5854 16.697L27.167 13.1155C27.5678 12.7146 28.2201 12.7146 28.6209 13.1154C29.0218 13.5163 29.0218 14.1685 28.6209 14.5694Z" fill="#FF3F3F"/>
</svg>
