<svg width="40" height="40" viewBox="0 0 40 40" fill="none" xmlns="http://www.w3.org/2000/svg">
<path d="M31.6756 31.8902C31.3353 31.6301 30.849 31.6953 30.589 32.0354C30.329 32.3755 30.394 32.862 30.7342 33.122L32.0588 34.1344C32.1989 34.2414 32.3644 34.2937 32.5291 34.2937C32.7411 34.2937 32.9517 34.207 33.104 34.0389L35.6359 31.2433C35.9232 30.9259 35.8991 30.4357 35.5817 30.1484C35.2644 29.861 34.7742 29.8853 34.4868 30.2026L32.4336 32.4697L31.6756 31.8902Z" fill="#FF3F3F"/>
<path d="M39.9057 27.7525C39.8968 27.3573 39.592 27.0322 39.1983 26.9978C37.3543 26.8366 35.0852 25.5979 33.4171 23.8423C33.2708 23.6884 33.0678 23.6012 32.8554 23.6011C32.8553 23.6011 32.8552 23.6011 32.8552 23.6011C32.6429 23.6011 32.4399 23.6881 32.2936 23.8419C31.5449 24.6289 30.6758 25.3116 29.7789 25.8403C28.2053 24.0835 26.2684 22.7892 23.9982 21.9745C23.9784 21.9665 23.9584 21.9594 23.938 21.953C23.7612 21.8904 23.5823 21.8306 23.4014 21.7737C25.3213 19.859 26.6127 17.3427 26.6127 15.0854V13.8676C27.5202 13.4724 28.1567 12.5666 28.1567 11.5145C28.1567 10.4217 27.4688 9.48692 26.5035 9.11911C26.1051 5.2511 23.38 1.99955 19.6366 0.92381C19.526 0.396948 19.0579 0 18.4987 0H15.6898C15.1505 0 14.6971 0.369586 14.5662 0.868542C12.7249 1.35959 11.043 2.40773 9.78201 3.86499C8.5021 5.34411 7.70619 7.19127 7.50404 9.1195C6.53829 9.48754 5.8502 10.422 5.8502 11.5146C5.8502 12.5671 6.4876 13.4731 7.39637 13.8681V15.0855C7.39637 17.3407 8.68798 19.8579 10.6078 21.7739C10.4322 21.8291 10.2583 21.8869 10.0865 21.9475C10.0527 21.9571 10.0198 21.969 9.98781 21.983C7.44691 22.8996 5.32559 24.4169 3.66431 26.5121C2.0666 28.5273 0.930786 31.0159 0.288507 33.9093C0.0599185 34.9434 -0.112007 36.2428 0.593059 37.1207C1.28177 37.9783 2.51408 38.0882 3.51083 38.0882H8.5814C9.00951 38.0882 9.35654 37.7411 9.35654 37.3131C9.35654 36.885 9.00951 36.5379 8.5814 36.5379H3.51083C2.58354 36.5379 2.00854 36.4074 1.80181 36.15C1.58283 35.8773 1.58299 35.236 1.80204 34.2446C2.60764 30.616 4.57742 26.1756 9.32336 23.9337C9.1774 26.5524 10.5963 28.264 11.4982 29.3504C11.6362 29.5167 11.8374 29.6178 12.0533 29.6293C12.269 29.6413 12.48 29.5618 12.635 29.4111L17.0035 25.1627L21.3741 29.4112C21.5192 29.5521 21.7131 29.6305 21.9144 29.6305C21.9283 29.6305 21.9421 29.6301 21.9562 29.6293C22.1721 29.6177 22.3734 29.5164 22.5113 29.3498C23.412 28.2625 24.8288 26.5499 24.6841 23.9367C26.061 24.5899 27.2775 25.4634 28.3236 26.5515C27.6989 26.7933 27.0847 26.9478 26.512 26.9978C26.1185 27.0322 25.8138 27.357 25.8046 27.752C25.7397 30.5233 26.2016 32.5088 27.4513 34.8328C27.4618 34.8525 27.8841 35.6095 28.5421 36.5381H15.599C15.1708 36.5381 14.8238 36.8852 14.8238 37.3132C14.8238 37.7412 15.1708 38.0884 15.599 38.0884H29.7732C30.7077 39.1211 31.8099 40.0002 32.8551 40.0002C35.3768 40.0002 38.2311 34.8845 38.2586 34.8333C39.5062 32.509 39.968 30.5238 39.9057 27.7525ZM24.9213 8.95176H20.6536C19.8473 6.84548 19.6947 5.10863 19.6673 2.55896C22.4632 3.54781 24.4957 6.01476 24.9213 8.95176ZM16.077 1.55028H18.1114C18.1163 4.55068 18.1923 6.58278 19.0046 8.95176H15.1853C15.9962 6.58271 16.0722 4.55037 16.077 1.55028ZM14.5218 2.49781C14.4962 5.08103 14.348 6.82858 13.5368 8.95184H9.08733C9.52947 5.97662 11.6682 3.44278 14.5218 2.49781ZM8.41521 10.502H13.6007C13.6464 10.5391 13.6906 10.5438 13.7276 10.502H25.5938C26.1522 10.502 26.6064 10.9562 26.6064 11.5146C26.6064 12.0742 26.1522 12.5294 25.5938 12.5294H8.41521C7.85572 12.5294 7.40048 12.0742 7.40048 11.5146C7.40048 10.9563 7.85564 10.502 8.41521 10.502ZM8.94665 15.0855V14.0796H25.0623V15.0855C25.0623 18.0408 22.1993 21.6958 18.9353 22.9074C17.5071 23.4382 16.4932 23.4377 15.0616 22.9057C11.8041 21.6891 8.94665 18.0348 8.94665 15.0855ZM12.1636 27.7069C11.3614 26.6596 10.5889 25.2845 10.9601 23.2884C11.3021 23.178 11.6554 23.0773 12.0217 22.9883C12.8033 23.5617 13.6464 24.0321 14.5204 24.3585C14.8017 24.463 15.0723 24.5491 15.3371 24.6207L12.1636 27.7069ZM21.8446 27.7065L18.6692 24.6198C18.9306 24.5489 19.1977 24.4638 19.475 24.3607C20.3533 24.0347 21.2005 23.5634 21.9858 22.9881C22.3476 23.0762 22.7015 23.1759 23.0467 23.2877C23.4189 25.281 22.6467 26.6575 21.8446 27.7065ZM36.8924 34.1005C35.9757 35.8113 33.829 38.4497 32.8551 38.4497C31.8812 38.4497 29.7345 35.8113 28.8172 34.0994C27.7929 32.1947 27.3725 30.6064 27.3497 28.4438C28.186 28.2846 29.0565 27.9726 29.9126 27.5368C29.9427 27.5237 29.972 27.5083 30.0007 27.491C31.0003 26.9715 31.9779 26.2838 32.8548 25.4666C34.5057 27.0068 36.5155 28.093 38.3598 28.4438C38.3354 30.6068 37.9151 32.1954 36.8924 34.1005Z" fill="#FF3F3F"/>
<path d="M12.0901 36.5379C11.662 36.5379 11.315 36.885 11.315 37.3131C11.315 37.7411 11.662 38.0882 12.0901 38.0882H12.0946C12.5227 38.0882 12.8674 37.7411 12.8674 37.3131C12.8674 36.885 12.5182 36.5379 12.0901 36.5379Z" fill="#FF3F3F"/>
</svg>
