<svg width="30" height="40" viewBox="0 0 30 40" fill="none" xmlns="http://www.w3.org/2000/svg">
<path d="M3.35936 14.8438C3.35936 21.3056 8.61633 26.5625 15.0781 26.5625C21.5399 26.5625 26.7969 21.3056 26.7969 14.8438C26.7969 8.38197 21.5399 3.125 15.0781 3.125C8.61633 3.125 3.35936 8.38197 3.35936 14.8438ZM15.0781 4.6875C20.6784 4.6875 25.2344 9.24348 25.2344 14.8438C25.2344 20.4441 20.6784 25 15.0781 25C9.47784 25 4.92186 20.4441 4.92186 14.8438C4.92186 9.24348 9.47784 4.6875 15.0781 4.6875Z" fill="#FF3F3F"/>
<path d="M7.84301 13.4509L10.8713 16.4346L10.1746 20.6281C10.126 20.9201 10.2466 21.2143 10.4861 21.3883C10.7254 21.5622 11.0425 21.5857 11.3052 21.4496L15.0781 19.4904L18.8507 21.4496C19.1113 21.5848 19.4284 21.5637 19.6698 21.3883C19.9094 21.2143 20.0299 20.9201 19.9814 20.6281L19.2847 16.4346L22.3129 13.4509C22.5238 13.2434 22.5992 12.9346 22.5076 12.6529C22.4161 12.3715 22.1735 12.1661 21.8808 12.1219L17.6782 11.4893L15.7767 7.68646C15.6445 7.42188 15.3738 7.25464 15.0781 7.25464C14.7821 7.25464 14.5117 7.42188 14.3793 7.68646L12.4777 11.4893L8.27514 12.1219C7.98247 12.1658 7.73986 12.3715 7.6483 12.6529C7.55675 12.9346 7.63244 13.2434 7.84301 13.4509ZM13.1116 12.9739C13.363 12.9361 13.5803 12.7783 13.6942 12.551L15.0781 9.78272L16.4621 12.551C16.5759 12.7783 16.7932 12.9361 17.0447 12.9739L20.1035 13.4345L17.8992 15.6058C17.7182 15.7843 17.6352 16.0398 17.6767 16.2906L18.1839 19.3427L15.4379 17.9169C15.3253 17.8583 15.2017 17.829 15.0781 17.829C14.9545 17.829 14.8309 17.8583 14.718 17.9169L11.972 19.3427L12.4792 16.2906C12.5211 16.0398 12.438 15.7843 12.2568 15.6058L10.0528 13.4345L13.1116 12.9739Z" fill="#FF3F3F"/>
<path d="M15.8594 0.781251C15.8594 1.21277 15.5096 1.5625 15.0781 1.5625C14.6466 1.5625 14.2969 1.21277 14.2969 0.781251C14.2969 0.349732 14.6466 0 15.0781 0C15.5096 0 15.8594 0.349732 15.8594 0.781251Z" fill="#FF3F3F"/>
<path d="M11.3962 0.460504C4.8242 2.13806 0.234352 8.05268 0.234352 14.8438C0.234352 19.0616 2.00773 23.0359 5.12084 25.8506L0.414101 34.1456C0.262733 34.4126 0.281654 34.7434 0.462319 34.9912C0.642983 35.2393 0.951822 35.3586 1.25242 35.2961L6.59758 34.1861L8.47625 39.48C8.57818 39.7681 8.8391 39.9698 9.14367 39.997C9.44824 40.0242 9.74029 39.8707 9.89135 39.6049L15.0781 30.4862L20.2646 39.6049C20.4044 39.8505 20.6644 39.9998 20.9433 39.9998C20.9662 39.9998 20.9894 39.9988 21.0123 39.997C21.3168 39.9698 21.5778 39.7678 21.68 39.48L23.5584 34.1861L28.9035 35.2961C29.2038 35.3583 29.513 35.239 29.6936 34.9912C29.8746 34.7434 29.8932 34.4126 29.7418 34.1456L25.0351 25.8506C28.1482 23.0359 29.9216 19.0616 29.9216 14.8438C29.9216 8.05268 25.3317 2.13806 18.7601 0.460504C18.3417 0.353692 17.9166 0.606073 17.8098 1.02416C17.7029 1.44226 17.9553 1.86767 18.3734 1.97448C24.2529 3.47534 28.3594 8.7674 28.3594 14.8438C28.3594 22.2391 22.3532 28.125 15.0781 28.125C7.79784 28.125 1.79685 22.2342 1.79685 14.8438C1.79685 8.7674 5.903 3.47534 11.7825 1.97448C12.2006 1.86767 12.453 1.44226 12.3465 1.02416C12.2397 0.606073 11.8146 0.353692 11.3962 0.460504ZM9.37774 37.3481L7.8424 33.0216C7.71178 32.6536 7.3297 32.4384 6.94732 32.5177L2.6251 33.4153L6.35009 26.8503C8.52203 28.4293 11.0937 29.3912 13.768 29.6293L9.37774 37.3481ZM23.2086 32.5177C22.8266 32.4384 22.4442 32.6536 22.3136 33.0216L20.7785 37.3481L16.3879 29.6293C19.0625 29.3912 21.6339 28.4293 23.8062 26.8503L27.5312 33.4153L23.2086 32.5177Z" fill="#FF3F3F"/>
</svg>
