<svg width="40" height="36" viewBox="0 0 40 36" fill="none" xmlns="http://www.w3.org/2000/svg">
<path d="M10.6896 7.58514H21.8495C22.2809 7.58514 22.6307 7.23538 22.6307 6.80389C22.6307 6.37241 22.2809 6.02264 21.8495 6.02264H10.6896C10.2581 6.02264 9.90836 6.37241 9.90836 6.80389C9.90836 7.23538 10.2581 7.58514 10.6896 7.58514Z" fill="#FF3F3F"/>
<path d="M6.0932 12.9536H21.8495C22.2809 12.9536 22.6307 12.6038 22.6307 12.1723C22.6307 11.7408 22.2809 11.3911 21.8495 11.3911H6.0932C5.66172 11.3911 5.31195 11.7408 5.31195 12.1723C5.31195 12.6038 5.66172 12.9536 6.0932 12.9536Z" fill="#FF3F3F"/>
<path d="M6.0932 18.322H17.7573C18.1888 18.322 18.5386 17.9723 18.5386 17.5408C18.5386 17.1093 18.1888 16.7595 17.7573 16.7595H6.0932C5.66172 16.7595 5.31195 17.1093 5.31195 17.5408C5.31195 17.9723 5.66172 18.322 6.0932 18.322Z" fill="#FF3F3F"/>
<path d="M5.91983 25.9396C6.24046 25.9396 6.541 25.7407 6.65538 25.4216C6.91397 24.6998 7.93108 22.6394 9.17069 22.6394C9.26999 22.6394 9.44405 22.6508 9.49405 22.7278C9.66671 22.9933 9.55272 23.4619 9.49553 23.7421C9.41389 24.1418 9.26686 24.5083 9.12686 24.8887C8.9817 25.284 9.17585 25.7233 9.566 25.8819C10.1383 26.1147 10.5073 25.6668 10.6923 25.1911C10.8687 24.7951 11.0814 24.4072 11.3534 24.0686C11.5323 23.846 11.8093 23.526 12.1259 23.526C12.2618 23.526 12.3405 23.5516 12.353 23.5698C12.4705 23.7412 12.3993 24.3754 12.2072 24.8727C12.0094 25.3765 12.3932 25.9394 12.9344 25.9394H14.7466C15.1781 25.9394 15.5279 25.5897 15.5279 25.1582C15.5279 24.7267 15.1781 24.3769 14.7466 24.3769H13.9374C14.0105 23.8345 13.9872 23.1929 13.6441 22.6898C13.0613 21.835 11.8314 21.7872 11.0056 22.2982C10.7363 21.4931 9.99616 21.0769 9.17077 21.0769C8.05256 21.0769 6.99795 21.767 6.12108 23.0726C5.51967 23.9679 5.19788 24.8572 5.18452 24.8947C5.03897 25.3009 5.2503 25.7481 5.65655 25.8937C5.7435 25.9248 5.83233 25.9396 5.91983 25.9396Z" fill="#FF3F3F"/>
<path d="M38.8017 9.14554L37.0917 7.43554C35.8013 6.14522 33.7018 6.1453 32.4114 7.43554L28.6726 11.1744V0.80249C28.6726 0.371006 28.3228 0.0212402 27.8913 0.0212402H0.78125C0.349766 0.0212402 0 0.371006 0 0.80249V30.5869C0 33.526 2.45234 35.9787 5.39187 35.9787H17.0856C17.5171 35.9787 17.8669 35.629 17.8669 35.1975C17.8669 34.766 17.5171 34.4162 17.0856 34.4162H9.18734C9.19289 34.4108 9.19844 34.4051 9.20398 34.3997C10.0362 33.5683 10.5629 32.5126 10.7279 31.3683H33.0552C32.694 33.1207 31.0907 34.4163 29.3052 34.4163H23.9523C23.5209 34.4163 23.1711 34.7661 23.1711 35.1976C23.1711 35.6291 23.5209 35.9788 23.9523 35.9788H29.3052C32.2362 35.9788 34.697 33.5167 34.697 30.587C34.697 30.1555 34.3472 29.8058 33.9157 29.8058H28.6727V19.8599L30.8274 17.7055C31.2608 17.6894 31.6894 17.5183 32.0194 17.1882L37.0917 12.1159C37.5348 11.6728 37.8256 11.1344 37.9645 10.566C38.2713 10.9926 38.4375 11.5026 38.4375 12.0384C38.4375 12.7139 38.1745 13.3489 37.6969 13.8265L33.9881 17.5352C33.683 17.8403 33.683 18.335 33.9881 18.6401C34.2887 18.9408 34.7923 18.9408 35.093 18.6401L38.8018 14.9314C39.5745 14.1587 40.0001 13.1312 40.0001 12.0384C40 10.9457 39.5745 9.91827 38.8017 9.14554ZM1.5625 30.5869V1.58374H27.1102V12.7876C26.9288 13.0614 26.8284 13.3776 26.8178 13.7041L21.9655 18.5564C21.7789 18.7431 21.6003 18.9363 21.4282 19.1344C20.4468 20.2633 19.7324 21.5672 19.2311 22.972C18.9926 23.6405 18.7548 24.3091 18.5166 24.9777C18.2993 25.5873 18.9078 26.1854 19.5076 25.9784C20.2113 25.7354 20.916 25.4952 21.6186 25.2493C23.2649 24.673 24.7735 23.7598 26.0087 22.5237L27.1102 21.4226V29.8057H10.0023C9.57086 29.8057 9.22109 30.1555 9.22109 30.5869C9.22109 32.6711 7.47531 34.4158 5.39133 34.4158C3.30352 34.4158 1.5625 32.6748 1.5625 30.5869ZM24.9036 21.4188C23.6646 22.6586 22.1709 23.4051 20.5341 23.9705C21.1085 22.3583 21.845 20.8869 23.0705 19.6614L27.523 15.2087L29.3184 17.0046L24.9036 21.4188ZM35.9869 11.011L30.9145 16.0833C30.832 16.1659 30.6891 16.1651 30.6075 16.0833L28.443 13.9187C28.361 13.8355 28.3611 13.6957 28.444 13.6129L33.5164 8.54046C33.857 8.19991 34.3043 8.0296 34.7516 8.0296C35.1991 8.0296 35.6464 8.19991 35.987 8.54046C36.668 9.22155 36.668 10.3299 35.9869 11.011Z" fill="#FF3F3F"/>
<path d="M21.2227 34.8984C21.0947 34.5913 20.7756 34.3937 20.4437 34.4184C20.1035 34.4438 19.8152 34.6941 19.7394 35.0261C19.5837 35.7086 20.3781 36.2356 20.9502 35.8359C21.2466 35.6288 21.3595 35.2323 21.2227 34.8984Z" fill="#FF3F3F"/>
</svg>
