<svg width="8" height="12" viewBox="0 0 8 12" fill="none" xmlns="http://www.w3.org/2000/svg">
<path d="M0.453636 6.46824L6.13473 11.8083C6.26613 11.9319 6.44153 12 6.62856 12C6.81559 12 6.99099 11.9319 7.12239 11.8083L7.54076 11.4151C7.813 11.1589 7.813 10.7425 7.54076 10.4867L2.77021 6.00249L7.54605 1.51326C7.67745 1.38965 7.75 1.22487 7.75 1.04916C7.75 0.873261 7.67745 0.708482 7.54605 0.584775L7.12768 0.191706C6.99618 0.0680971 6.82088 0 6.63385 0C6.44683 0 6.27142 0.0680971 6.14003 0.191706L0.453636 5.53664C0.321927 5.66064 0.249587 5.8262 0.250002 6.00219C0.249587 6.17888 0.321927 6.34434 0.453636 6.46824Z" fill="white"/>
</svg>
