<svg width="16" height="20" viewBox="0 0 16 20" fill="none" xmlns="http://www.w3.org/2000/svg">
<path d="M8.00001 0C4.09419 0 0.916687 3.1775 0.916687 7.08332C0.916687 10.8616 7.39251 19.47 7.66837 19.835C7.74587 19.9392 7.87005 20 8.00005 20C8.13005 20 8.25423 19.9392 8.33173 19.835C8.60755 19.47 15.0834 10.8617 15.0834 7.08332C15.0833 3.1775 11.9058 0 8.00001 0ZM8.00001 10.8333C5.93251 10.8333 4.25001 9.15082 4.25001 7.08332C4.25001 5.01582 5.93251 3.33332 8.00001 3.33332C10.0675 3.33332 11.75 5.01582 11.75 7.08332C11.75 9.15082 10.0675 10.8333 8.00001 10.8333Z" fill="#FF3F3F"/>
</svg>
