<svg width="32" height="40" viewBox="0 0 32 40" fill="none" xmlns="http://www.w3.org/2000/svg">
<path d="M17.5 10C17.5 9.17156 16.8284 8.5 16 8.5C15.1716 8.5 14.5 9.17156 14.5 10V16C14.5 16.8284 15.1716 17.5 16 17.5C16.8284 17.5 17.5 16.8284 17.5 16V10Z" fill="#271717"/>
<path fill-rule="evenodd" clip-rule="evenodd" d="M0 16C0 7.16344 7.16344 0 16 0C24.8366 0 32 7.16344 32 16V24C32 32.8366 24.8366 40 16 40C7.16344 40 0 32.8366 0 24V16V16ZM29 16V24C29 31.1798 23.1798 37 16 37C8.82031 37 3 31.1798 3 24V16C3 8.82031 8.82031 3 16 3C23.1798 3 29 8.82031 29 16Z" fill="#271717"/>
</svg>
