<svg width="44" height="32" viewBox="0 0 44 32" fill="none" xmlns="http://www.w3.org/2000/svg">
<path opacity="0.2" d="M10.1076 32C7.2175 32 4.87418 30.9841 3.07764 28.9524C1.35921 26.8425 0.5 24.1074 0.5 20.7472C0.5 16.3712 1.78883 12.3077 4.36647 8.55678C6.94411 4.72772 10.1466 1.87546 13.9743 0L14.6773 1.40658C13.0369 2.65689 11.5919 4.25885 10.3419 6.21245C9.09214 8.16605 8.19388 10.5885 7.64711 13.4798L10.1076 14.0659C12.8417 14.6911 14.9506 15.8633 16.4347 17.5824C17.997 19.2234 18.7781 21.2161 18.7781 23.5604C18.7781 26.0611 17.9188 28.0928 16.2004 29.6557C14.5601 31.2186 12.5292 32 10.1076 32ZM34.8297 32C31.9397 32 29.5963 30.9841 27.7998 28.9524C26.0814 26.8425 25.2222 24.1074 25.2222 20.7472C25.2222 16.3712 26.511 12.3077 29.0886 8.55678C31.6663 4.72772 34.8688 1.87546 38.6962 0L39.3992 1.40658C37.7589 2.65689 36.3138 4.25885 35.0641 6.21245C33.8143 8.16605 32.916 10.5885 32.3693 13.4798L34.8297 14.0659C37.5636 14.6911 39.6726 15.8633 41.1567 17.5824C42.7189 19.2234 43.5 21.2161 43.5 23.5604C43.5 26.0611 42.6408 28.0928 40.9224 29.6557C39.282 31.2186 37.2512 32 34.8297 32Z" fill="#FF3F3F"/>
</svg>
