<svg width="8" height="12" viewBox="0 0 8 12" fill="none" xmlns="http://www.w3.org/2000/svg">
<path d="M7.54636 5.53176L1.86527 0.191706C1.73387 0.068097 1.55847 0 1.37144 0C1.18441 0 1.00901 0.068097 0.877612 0.191706L0.459239 0.584873C0.187 0.841066 0.187 1.25745 0.459239 1.51326L5.22979 5.99751L0.453945 10.4867C0.322549 10.6104 0.25 10.7751 0.25 10.9508C0.25 11.1267 0.322549 11.2915 0.453945 11.4152L0.872319 11.8083C1.00382 11.9319 1.17912 12 1.36615 12C1.55317 12 1.72858 11.9319 1.85997 11.8083L7.54636 6.46336C7.67807 6.33936 7.75041 6.1738 7.75 5.99781C7.75041 5.82112 7.67807 5.65566 7.54636 5.53176Z" fill="white"/>
</svg>
