<svg width="19" height="18" viewBox="0 0 19 18" fill="none" xmlns="http://www.w3.org/2000/svg">
<path d="M17.6886 13.1118L15.0195 10.8421C15.0071 10.8317 14.9941 10.8221 14.9805 10.8134C14.2802 10.3676 13.3811 10.4664 12.7941 11.0533L11.3388 12.5085C11.238 12.6094 11.0876 12.6392 10.9558 12.5848C9.3125 11.905 7.96255 10.8817 6.94343 9.5434C6.16629 8.52291 5.88614 7.71198 5.84919 7.59772C5.8448 7.57328 5.8378 7.54897 5.82791 7.52521C5.77339 7.39337 5.80319 7.24327 5.90426 7.14247L7.3594 5.68692C7.94648 5.09984 8.04509 4.20075 7.59932 3.50051C7.59574 3.49488 7.59204 3.48938 7.58819 3.48389L5.66064 0.805287C5.0542 -0.135554 3.73323 -0.27769 2.94043 0.514973L2.64901 0.806386C2.64888 0.80666 2.6486 0.806935 2.64833 0.807072L1.60792 1.84748C0.367292 3.08825 0.164319 4.95263 1.02112 7.23943C1.755 9.19829 3.22415 11.3421 5.15788 13.2759C7.13734 15.2553 9.33914 16.7517 11.3576 17.4893C13.3555 18.2192 15.4806 18.3091 16.9848 16.8048L17.966 15.8237C18.7552 15.0344 18.6175 13.722 17.6886 13.1118ZM14.5839 11.3945L17.2507 13.6622C17.2629 13.6726 17.2759 13.6822 17.2895 13.6909C17.8592 14.0536 17.9454 14.8501 17.4687 15.3266L17.396 15.3995L12.8475 11.994L13.2912 11.5505C13.6379 11.2036 14.1664 11.1408 14.5839 11.3945ZM5.07328 1.19159C5.07685 1.19722 5.08056 1.20285 5.08441 1.20821L7.01113 3.88585C7.27288 4.30484 7.21232 4.83974 6.86227 5.18979L6.43229 5.61991L3.35502 1.09464L3.43756 1.0121C3.91615 0.533513 4.71197 0.624013 5.07328 1.19159ZM11.5988 16.8288C9.67449 16.1257 7.56361 14.6873 5.65501 12.7787C3.79063 10.9145 2.37875 8.85964 1.67933 6.99279C1.15432 5.59148 0.802076 3.64759 2.10505 2.34475L2.84897 1.6007L5.92624 6.12596L5.40727 6.64521C5.11201 6.93991 5.01918 7.37607 5.16653 7.76444C5.27749 8.21982 5.78808 9.16506 6.3032 9.86159C7.06126 10.8866 8.43716 12.3037 10.687 13.2345C11.0824 13.3981 11.5332 13.3083 11.8359 13.0057L12.3453 12.4962L16.8937 15.9017L16.4877 16.3077C15.0909 17.7046 13.0581 17.3621 11.5988 16.8288Z" fill="#FF3F3F"/>
</svg>
