<svg width="19" height="14" viewBox="0 0 19 14" fill="none" xmlns="http://www.w3.org/2000/svg">
<path d="M17.3574 10.4313V9.45742C17.3574 5.86445 14.9352 2.75312 11.4688 1.85664L11.3352 1.24141C11.2262 0.738672 10.7762 0.373047 10.2594 0.373047H8.73711C8.22383 0.373047 7.77031 0.738672 7.66133 1.24141L7.52773 1.85312C4.08594 2.74258 1.64258 5.85039 1.64258 9.45742V10.4348C0.981641 10.6422 0.5 11.2609 0.5 11.9922C0.5 12.8957 1.23477 13.627 2.13477 13.627H16.8652C17.7687 13.627 18.5 12.8922 18.5 11.9922C18.5 11.2609 18.0184 10.6422 17.3574 10.4313ZM2.37734 9.45742C2.37734 7.60469 3.09102 5.85039 4.35664 4.53203V7.79453C4.35664 7.99844 4.52187 8.16016 4.72227 8.16016C4.92266 8.16016 5.08789 7.99492 5.08789 7.79453V3.86758C5.76641 3.3332 6.53281 2.92891 7.35195 2.67227L6.66641 5.85742C6.62422 6.0543 6.75078 6.25117 6.94766 6.29336C7.14453 6.33555 7.34141 6.20898 7.38359 6.01211L8.37852 1.39609C8.41367 1.22734 8.56484 1.10781 8.73359 1.10781H10.2559C10.4246 1.10781 10.5758 1.22734 10.6109 1.39609L11.6059 6.01211C11.648 6.20898 11.8449 6.33555 12.0418 6.29336C12.2387 6.25117 12.3652 6.0543 12.323 5.85742L11.6375 2.66875C12.4566 2.92539 13.223 3.3332 13.9016 3.86758V7.79102C13.9016 7.99492 14.0668 8.15664 14.2672 8.15664C14.4676 8.15664 14.6328 7.99141 14.6328 7.79102V4.52852C15.8984 5.84687 16.6121 7.60117 16.6121 9.45391V10.3504H2.37734V9.45742ZM16.8652 12.8922H2.13477C1.63906 12.8922 1.23477 12.4879 1.23477 11.9922C1.23477 11.4965 1.63906 11.0922 2.13477 11.0922H16.8652C17.3609 11.0922 17.7652 11.4965 17.7652 11.9922C17.7652 12.4879 17.3609 12.8922 16.8652 12.8922Z" fill="#FF3F3F"/>
</svg>
