<svg width="15" height="18" viewBox="0 0 15 18" fill="none" xmlns="http://www.w3.org/2000/svg">
<path d="M13.125 0H1.875C1.47717 0 1.09564 0.158035 0.81434 0.43934C0.533035 0.720644 0.375 1.10218 0.375 1.5V16.5C0.375 16.8978 0.533035 17.2794 0.81434 17.5607C1.09564 17.842 1.47717 18 1.875 18H13.125C13.5228 18 13.9044 17.842 14.1857 17.5607C14.467 17.2794 14.625 16.8978 14.625 16.5V1.5C14.625 1.10218 14.467 0.720644 14.1857 0.43934C13.9044 0.158035 13.5228 0 13.125 0V0ZM13.875 16.5C13.875 16.6989 13.796 16.8897 13.6553 17.0303C13.5147 17.171 13.3239 17.25 13.125 17.25H1.875C1.67609 17.25 1.48532 17.171 1.34467 17.0303C1.20402 16.8897 1.125 16.6989 1.125 16.5V1.5C1.125 1.30109 1.20402 1.11032 1.34467 0.96967C1.48532 0.829018 1.67609 0.75 1.875 0.75H13.125C13.3239 0.75 13.5147 0.829018 13.6553 0.96967C13.796 1.11032 13.875 1.30109 13.875 1.5V16.5Z" fill="#FF3F3F"/>
<path d="M12.75 1.875H2.25C2.15054 1.875 2.05516 1.91451 1.98484 1.98484C1.91451 2.05516 1.875 2.15054 1.875 2.25V6.375C1.875 6.47446 1.91451 6.56984 1.98484 6.64017C2.05516 6.71049 2.15054 6.75 2.25 6.75H12.75C12.8495 6.75 12.9448 6.71049 13.0152 6.64017C13.0855 6.56984 13.125 6.47446 13.125 6.375V2.25C13.125 2.15054 13.0855 2.05516 13.0152 1.98484C12.9448 1.91451 12.8495 1.875 12.75 1.875ZM12.375 6H2.625V2.625H12.375V6Z" fill="#FF3F3F"/>
<path d="M9.75 7.875H8.25C8.15054 7.875 8.05516 7.91451 7.98483 7.98483C7.91451 8.05516 7.875 8.15054 7.875 8.25V9.75C7.875 9.84946 7.91451 9.94484 7.98483 10.0152C8.05516 10.0855 8.15054 10.125 8.25 10.125H9.75C9.84946 10.125 9.94484 10.0855 10.0152 10.0152C10.0855 9.94484 10.125 9.84946 10.125 9.75V8.25C10.125 8.15054 10.0855 8.05516 10.0152 7.98483C9.94484 7.91451 9.84946 7.875 9.75 7.875ZM9.375 9.375H8.625V8.625H9.375V9.375Z" fill="#FF3F3F"/>
<path d="M12.75 7.875H11.25C11.1505 7.875 11.0552 7.91451 10.9848 7.98483C10.9145 8.05516 10.875 8.15054 10.875 8.25V9.75C10.875 9.84946 10.9145 9.94484 10.9848 10.0152C11.0552 10.0855 11.1505 10.125 11.25 10.125H12.75C12.8495 10.125 12.9448 10.0855 13.0152 10.0152C13.0855 9.94484 13.125 9.84946 13.125 9.75V8.25C13.125 8.15054 13.0855 8.05516 13.0152 7.98483C12.9448 7.91451 12.8495 7.875 12.75 7.875ZM12.375 9.375H11.625V8.625H12.375V9.375Z" fill="#FF3F3F"/>
<path d="M6.75 7.875H5.25C5.15054 7.875 5.05516 7.91451 4.98483 7.98483C4.91451 8.05516 4.875 8.15054 4.875 8.25V9.75C4.875 9.84946 4.91451 9.94484 4.98483 10.0152C5.05516 10.0855 5.15054 10.125 5.25 10.125H6.75C6.84946 10.125 6.94484 10.0855 7.01517 10.0152C7.08549 9.94484 7.125 9.84946 7.125 9.75V8.25C7.125 8.15054 7.08549 8.05516 7.01517 7.98483C6.94484 7.91451 6.84946 7.875 6.75 7.875ZM6.375 9.375H5.625V8.625H6.375V9.375Z" fill="#FF3F3F"/>
<path d="M3.75 7.875H2.25C2.15054 7.875 2.05516 7.91451 1.98484 7.98483C1.91451 8.05516 1.875 8.15054 1.875 8.25V9.75C1.875 9.84946 1.91451 9.94484 1.98484 10.0152C2.05516 10.0855 2.15054 10.125 2.25 10.125H3.75C3.84946 10.125 3.94484 10.0855 4.01516 10.0152C4.08549 9.94484 4.125 9.84946 4.125 9.75V8.25C4.125 8.15054 4.08549 8.05516 4.01516 7.98483C3.94484 7.91451 3.84946 7.875 3.75 7.875ZM3.375 9.375H2.625V8.625H3.375V9.375Z" fill="#FF3F3F"/>
<path d="M9.75 10.875H8.25C8.15054 10.875 8.05516 10.9145 7.98483 10.9848C7.91451 11.0552 7.875 11.1505 7.875 11.25V12.75C7.875 12.8495 7.91451 12.9448 7.98483 13.0152C8.05516 13.0855 8.15054 13.125 8.25 13.125H9.75C9.84946 13.125 9.94484 13.0855 10.0152 13.0152C10.0855 12.9448 10.125 12.8495 10.125 12.75V11.25C10.125 11.1505 10.0855 11.0552 10.0152 10.9848C9.94484 10.9145 9.84946 10.875 9.75 10.875ZM9.375 12.375H8.625V11.625H9.375V12.375Z" fill="#FF3F3F"/>
<path d="M6.75 10.875H5.25C5.15054 10.875 5.05516 10.9145 4.98483 10.9848C4.91451 11.0552 4.875 11.1505 4.875 11.25V12.75C4.875 12.8495 4.91451 12.9448 4.98483 13.0152C5.05516 13.0855 5.15054 13.125 5.25 13.125H6.75C6.84946 13.125 6.94484 13.0855 7.01517 13.0152C7.08549 12.9448 7.125 12.8495 7.125 12.75V11.25C7.125 11.1505 7.08549 11.0552 7.01517 10.9848C6.94484 10.9145 6.84946 10.875 6.75 10.875ZM6.375 12.375H5.625V11.625H6.375V12.375Z" fill="#FF3F3F"/>
<path d="M3.75 10.875H2.25C2.15054 10.875 2.05516 10.9145 1.98484 10.9848C1.91451 11.0552 1.875 11.1505 1.875 11.25V12.75C1.875 12.8495 1.91451 12.9448 1.98484 13.0152C2.05516 13.0855 2.15054 13.125 2.25 13.125H3.75C3.84946 13.125 3.94484 13.0855 4.01516 13.0152C4.08549 12.9448 4.125 12.8495 4.125 12.75V11.25C4.125 11.1505 4.08549 11.0552 4.01516 10.9848C3.94484 10.9145 3.84946 10.875 3.75 10.875ZM3.375 12.375H2.625V11.625H3.375V12.375Z" fill="#FF3F3F"/>
<path d="M9.75 13.875H8.25C8.15054 13.875 8.05516 13.9145 7.98483 13.9848C7.91451 14.0552 7.875 14.1505 7.875 14.25V15.75C7.875 15.8495 7.91451 15.9448 7.98483 16.0152C8.05516 16.0855 8.15054 16.125 8.25 16.125H9.75C9.84946 16.125 9.94484 16.0855 10.0152 16.0152C10.0855 15.9448 10.125 15.8495 10.125 15.75V14.25C10.125 14.1505 10.0855 14.0552 10.0152 13.9848C9.94484 13.9145 9.84946 13.875 9.75 13.875ZM9.375 15.375H8.625V14.625H9.375V15.375Z" fill="#FF3F3F"/>
<path d="M12.75 10.875H11.25C11.1505 10.875 11.0552 10.9145 10.9848 10.9848C10.9145 11.0552 10.875 11.1505 10.875 11.25V15.75C10.875 15.8495 10.9145 15.9448 10.9848 16.0152C11.0552 16.0855 11.1505 16.125 11.25 16.125H12.75C12.8495 16.125 12.9448 16.0855 13.0152 16.0152C13.0855 15.9448 13.125 15.8495 13.125 15.75V11.25C13.125 11.1505 13.0855 11.0552 13.0152 10.9848C12.9448 10.9145 12.8495 10.875 12.75 10.875ZM12.375 15.375H11.625V11.625H12.375V15.375Z" fill="#FF3F3F"/>
<path d="M6.75 13.875H5.25C5.15054 13.875 5.05516 13.9145 4.98483 13.9848C4.91451 14.0552 4.875 14.1505 4.875 14.25V15.75C4.875 15.8495 4.91451 15.9448 4.98483 16.0152C5.05516 16.0855 5.15054 16.125 5.25 16.125H6.75C6.84946 16.125 6.94484 16.0855 7.01517 16.0152C7.08549 15.9448 7.125 15.8495 7.125 15.75V14.25C7.125 14.1505 7.08549 14.0552 7.01517 13.9848C6.94484 13.9145 6.84946 13.875 6.75 13.875ZM6.375 15.375H5.625V14.625H6.375V15.375Z" fill="#FF3F3F"/>
<path d="M3.75 13.875H2.25C2.15054 13.875 2.05516 13.9145 1.98484 13.9848C1.91451 14.0552 1.875 14.1505 1.875 14.25V15.75C1.875 15.8495 1.91451 15.9448 1.98484 16.0152C2.05516 16.0855 2.15054 16.125 2.25 16.125H3.75C3.84946 16.125 3.94484 16.0855 4.01516 16.0152C4.08549 15.9448 4.125 15.8495 4.125 15.75V14.25C4.125 14.1505 4.08549 14.0552 4.01516 13.9848C3.94484 13.9145 3.84946 13.875 3.75 13.875ZM3.375 15.375H2.625V14.625H3.375V15.375Z" fill="#FF3F3F"/>
</svg>
