<svg width="15" height="15" viewBox="0 0 15 15" fill="none" xmlns="http://www.w3.org/2000/svg">
<g clip-path="url(#clip0_7_1865)">
<path d="M7.39308 7.22554C8.38574 7.22554 9.2453 6.86952 9.94762 6.16708C10.6499 5.46476 11.006 4.60543 11.006 3.61266C11.006 2.62023 10.6499 1.76078 9.94751 1.05823C9.24507 0.356024 8.38562 0 7.39308 0C6.40031 0 5.54098 0.356024 4.83866 1.05835C4.13634 1.76067 3.7802 2.62011 3.7802 3.61266C3.7802 4.60543 4.13634 5.46488 4.83877 6.1672C5.54121 6.8694 6.40066 7.22554 7.39308 7.22554Z" fill="#B0B0B0"/>
<path d="M13.7147 11.5343C13.6944 11.242 13.6534 10.9231 13.5931 10.5865C13.5322 10.2473 13.4539 9.9266 13.36 9.63352C13.2631 9.3306 13.1312 9.03145 12.9683 8.74478C12.7991 8.44723 12.6005 8.18814 12.3775 7.97493C12.1444 7.75189 11.859 7.57256 11.529 7.44176C11.2001 7.31164 10.8356 7.24572 10.4457 7.24572C10.2926 7.24572 10.1445 7.30855 9.85848 7.49474C9.68247 7.60953 9.47659 7.74228 9.24679 7.8891C9.0503 8.0143 8.78411 8.1316 8.45532 8.2378C8.13455 8.3416 7.80885 8.39424 7.48739 8.39424C7.16592 8.39424 6.84034 8.3416 6.51922 8.2378C6.19078 8.13172 5.92459 8.01442 5.72832 7.88922C5.5007 7.74376 5.29471 7.61101 5.11607 7.49463C4.83042 7.30843 4.68222 7.24561 4.5291 7.24561C4.13909 7.24561 3.77471 7.31164 3.44592 7.44187C3.1161 7.57245 2.83058 7.75178 2.59723 7.97505C2.37442 8.18837 2.17563 8.44734 2.00672 8.74478C1.84387 9.03145 1.71203 9.33048 1.61499 9.63363C1.52126 9.92672 1.44287 10.2473 1.38199 10.5865C1.32168 10.9227 1.28071 11.2416 1.26045 11.5346C1.24054 11.8216 1.23047 12.1195 1.23047 12.4204C1.23047 13.2034 1.47938 13.8373 1.97021 14.3048C2.45498 14.7661 3.09642 15.0001 3.87645 15.0001H11.099C11.879 15.0001 12.5202 14.7662 13.0051 14.3048C13.4961 13.8376 13.745 13.2036 13.745 12.4203C13.7449 12.118 13.7347 11.8199 13.7147 11.5343Z" fill="#B0B0B0"/>
</g>
<defs>
<clipPath id="clip0_7_1865">
<rect width="14.9999" height="15" fill="white"/>
</clipPath>
</defs>
</svg>
