<svg width="15" height="15" viewBox="0 0 15 15" fill="none" xmlns="http://www.w3.org/2000/svg">
<path d="M14.8678 2.9801L10.3186 7.49999L14.8678 12.0199C14.95 11.848 14.9999 11.658 14.9999 11.4551V3.54492C14.9999 3.34198 14.95 3.15199 14.8678 2.9801Z" fill="#FF3F3F"/>
<path d="M13.6818 2.22656H1.31848C1.11554 2.22656 0.925547 2.27646 0.753662 2.35869L6.56801 8.14375C7.08211 8.65786 7.91812 8.65786 8.43222 8.14375L14.2466 2.35869C14.0747 2.27646 13.8847 2.22656 13.6818 2.22656Z" fill="#FF3F3F"/>
<path d="M0.132129 2.9801C0.0498926 3.15199 0 3.34198 0 3.54492V11.4551C0 11.658 0.0498926 11.848 0.132129 12.0199L4.68132 7.49999L0.132129 2.9801Z" fill="#FF3F3F"/>
<path d="M9.69738 8.12143L9.05364 8.76517C8.19703 9.62178 6.80317 9.62178 5.94656 8.76517L5.30285 8.12143L0.753662 12.6413C0.925547 12.7236 1.11554 12.7735 1.31848 12.7735H13.6818C13.8847 12.7735 14.0747 12.7236 14.2466 12.6413L9.69738 8.12143Z" fill="#FF3F3F"/>
</svg>
